<?xml version="1.0" encoding="utf-8"?>
<!-- Generator: Adobe Illustrator 16.0.0, SVG Export Plug-In . SVG Version: 6.00 Build 0)  -->
<!DOCTYPE svg PUBLIC "-//W3C//DTD SVG 1.1//EN" "http://www.w3.org/Graphics/SVG/1.1/DTD/svg11.dtd">
<svg version="1.1" id="Layer_1" xmlns="http://www.w3.org/2000/svg" xmlns:xlink="http://www.w3.org/1999/xlink" x="0px" y="0px"
	 width="1280px" height="600px" viewBox="0 0 1280 600" enable-background="new 0 0 1280 600" xml:space="preserve">
<g id="Layer_1_1_" display="none">
	<g display="inline">
		<path fill="#FCF0E9" stroke="#FCF0E9" d="M-146.528-20.132L-17.724,95.604L58.81-14.534L-146.528-20.132z"/>
		<path fill="#F8DFD2" stroke="#F8DFD2" d="M58.81-14.534L-17.724,95.604l191.337,52.267L58.81-14.534z"/>
		<path fill="#F8E0D6" stroke="#F8E0D6" d="M58.81-14.534L173.614,147.87L189.48-44.398L58.81-14.534z"/>
		<path fill="#F6D8CA" stroke="#F6D8CA" d="M189.48-44.398L173.614,147.87L296.816,12.535L189.48-44.398z"/>
		<path fill="#F5CEC1" stroke="#F5CEC1" d="M189.48-44.398l107.335,56.933L454.55-70.533L189.48-44.398z"/>
		<path fill="#F3CBBB" stroke="#F3CBBB" d="M296.816,12.535L173.614,147.87l185.735-84.002L296.816,12.535z"/>
		<path fill="#F1C8BA" stroke="#F1C8BA" d="M296.816,12.535l62.533,51.333l95.202-134.402L296.816,12.535z"/>
		<path fill="#EFC1B5" stroke="#EFC1B5" d="M454.551-70.534L359.349,63.868L484.42,89.07L454.551-70.534z"/>
		<path fill="#EAB5AB" stroke="#EAB5AB" d="M454.551-70.534L484.42,89.07l159.597-78.402L454.551-70.534z"/>
		<path fill="#E6ADA4" stroke="#E6ADA4" d="M454.551-70.534l189.466,81.202l52.271-40.135L454.551-70.534z"/>
		<path fill="#E8AA9C" stroke="#E8AA9C" d="M644.017,10.668L484.42,89.07l117.604,36.4L644.017,10.668z"/>
		<path fill="#E39F92" stroke="#E39F92" d="M644.017,10.668L602.024,125.47l160.533-23.333L644.017,10.668z"/>
		<path fill="#E2A29A" stroke="#E2A29A" d="M644.017,10.668l118.54,91.469l-66.27-131.604L644.017,10.668z"/>
		<path fill="#DF9A94" stroke="#DF9A94" d="M696.287-29.467l66.27,131.604l98.002-89.602L696.287-29.467z"/>
		<path fill="#DB908D" stroke="#DB908D" d="M696.287-29.467l164.271,42.002L966.028-52.8L696.287-29.467z"/>
		<path fill="#DC8D84" stroke="#DC8D84" d="M860.559,12.535l-98.002,89.602l68.136,22.4L860.559,12.535z"/>
		<path fill="#D6807B" stroke="#D6807B" d="M860.559,12.535l-29.866,112.002l234.27-18.667L860.559,12.535z"/>
		<path fill="#D58683" stroke="#D58683" d="M860.559,12.535l204.402,93.335L966.027-52.801L860.559,12.535z"/>
		<path fill="#D28583" stroke="#D28583" d="M966.027-52.801l98.935,158.671l35.471-110.135L966.027-52.801z"/>
		<path fill="#CF827D" stroke="#CF827D" d="M1100.432-4.265l-35.471,110.135l123.203-42.936L1100.432-4.265z"/>
		<path fill="#CE8483" stroke="#CE8483" d="M1100.432-4.265l87.732,67.2l74.672-131.602L1100.432-4.265z"/>
		<path fill="#CC8380" stroke="#CC8380" d="M1262.836-68.667l-74.672,131.602l52.271,75.602L1262.836-68.667z"/>
		<path fill="#C97B73" stroke="#C97B73" d="M1262.836-68.667l-22.4,207.204l96.136,91.469L1262.836-68.667z"/>
		<path fill="#F6D5C3" stroke="#F6D5C3" d="M-17.724,95.604l-129.736,170.804l162.403-50.402L-17.724,95.604z"/>
		<path fill="#F5D2C0" stroke="#F5D2C0" d="M-17.724,95.604l32.667,120.402l158.671-68.135L-17.724,95.604z"/>
		<path fill="#F2C0A9" stroke="#F2C0A9" d="M173.614,147.87L14.943,216.005l155.871,84.937L173.614,147.87z"/>
		<path fill="#F1B69D" stroke="#F1B69D" d="M173.614,147.87l-2.8,153.071l151.202-84.937L173.614,147.87z"/>
		<path fill="#F2C0A9" stroke="#F2C0A9" d="M173.614,147.87l148.402,68.135l37.333-152.137L173.614,147.87z"/>
		<path fill="#EFB7A2" stroke="#EFB7A2" d="M359.349,63.868l-37.333,152.137L484.42,89.07L359.349,63.868z"/>
		<path fill="#ECA890" stroke="#ECA890" d="M484.42,89.07L322.016,216.005l119.469,57.869L484.42,89.07z"/>
		<path fill="#E8A28E" stroke="#E8A28E" d="M484.42,89.07l-42.937,184.804l160.54-148.404L484.42,89.07z"/>
		<path fill="#E4917A" stroke="#E4917A" d="M602.024,125.47l-160.54,148.404l178.271,26.133L602.024,125.47z"/>
		<path fill="#E18975" stroke="#E18975" d="M602.024,125.47l17.731,174.537l97.998-66.269L602.024,125.47z"/>
		<path fill="#E08F80" stroke="#E08F80" d="M602.024,125.47l115.729,108.27l44.804-131.603L602.024,125.47z"/>
		<path fill="#DB8477" stroke="#DB8477" d="M762.557,102.137l-44.804,131.602l112.938-109.202L762.557,102.137z"/>
		<path fill="#DA7A69" stroke="#DA7A69" d="M830.692,124.537L717.753,233.739l161.473,10.267L830.692,124.537z"/>
		<path fill="#D47468" stroke="#D47468" d="M830.692,124.537l48.533,119.469l185.735-138.135L830.692,124.537z"/>
		<path fill="#D26959" stroke="#D26959" d="M1064.961,105.87L879.226,244.005l154.938,30.8L1064.961,105.87z"/>
		<path fill="#CE6A5B" stroke="#CE6A5B" d="M1064.961,105.87l-30.799,168.935l146.541-57.866L1064.961,105.87z"/>
		<path fill="#CD776C" stroke="#CD776C" d="M1064.961,105.87l115.741,111.069l7.462-154.004L1064.961,105.87z"/>
		<path fill="#CC7569" stroke="#CC7569" d="M1188.164,62.935l-7.462,154.004l59.732-78.402L1188.164,62.935z"/>
		<path fill="#C96B5C" stroke="#C96B5C" d="M1240.436,138.537l-59.732,78.402l155.868,13.066L1240.436,138.537z"/>
		<path fill="#F3C5B1" stroke="#F3C5B1" d="M-147.461,266.407l40.136,103.603L14.943,216.005L-147.461,266.407z"/>
		<path fill="#F1B6A2" stroke="#F1B6A2" d="M14.943,216.005L-107.325,370.01L7.477,408.275L14.943,216.005z"/>
		<path fill="#F1B39C" stroke="#F1B39C" d="M14.943,216.005L7.477,408.275l163.337-107.334L14.943,216.005z"/>
		<path fill="#EC9A87" stroke="#EC9A87" d="M170.813,300.941L7.477,408.275l166.137,29.862L170.813,300.941z"/>
		<path fill="#EC9580" stroke="#EC9580" d="M170.813,300.941l2.8,137.196l132.533-81.196L170.813,300.941z"/>
		<path fill="#EDA388" stroke="#EDA388" d="M170.813,300.941l135.333,56l15.869-140.937L170.813,300.941z"/>
		<path fill="#ED9E80" stroke="#ED9E80" d="M322.016,216.005l-15.869,140.937l135.337-83.067L322.016,216.005z"/>
		<path fill="#E98E74" stroke="#E98E74" d="M441.484,273.874l-135.337,83.067l165.207-17.734L441.484,273.874z"/>
		<path fill="#E5866F" stroke="#E5866F" d="M441.484,273.874l29.869,65.333l148.401-39.2L441.484,273.874z"/>
		<path fill="#E17962" stroke="#E17962" d="M619.755,300.007l-148.401,39.2l136.269,35.469L619.755,300.007z"/>
		<path fill="#DC6B59" stroke="#DC6B59" d="M619.755,300.007l-12.134,74.669l167.07-20.533L619.755,300.007z"/>
		<path fill="#DB735D" stroke="#DB735D" d="M619.755,300.007l154.938,54.136l-56.938-120.403L619.755,300.007z"/>
		<path fill="#D96D5A" stroke="#D96D5A" d="M717.753,233.739l56.938,120.403l104.533-110.138L717.753,233.739z"/>
		<path fill="#D65F4E" stroke="#D65F4E" d="M879.226,244.005L774.692,354.143l72.8,19.601L879.226,244.005z"/>
		<path fill="#D35747" stroke="#D35747" d="M879.226,244.005l-31.733,129.737l170.808-37.335L879.226,244.005z"/>
		<path fill="#D15C49" stroke="#D15C49" d="M879.226,244.005l139.073,92.402l15.863-61.603L879.226,244.005z"/>
		<path fill="#CE5241" stroke="#CE5241" d="M1034.162,274.805l-15.863,61.603l170.802,42.001L1034.162,274.805z"/>
		<path fill="#CB5A48" stroke="#CB5A48" d="M1034.162,274.805l154.938,103.604l-8.397-161.47L1034.162,274.805z"/>
		<path fill="#C85543" stroke="#C85543" d="M1180.702,216.939l8.397,161.47l130.666-28.933L1180.702,216.939z"/>
		<path fill="#C75F4C" stroke="#C75F4C" d="M1180.702,216.939l139.063,132.538l16.805-119.471L1180.702,216.939z"/>
		<path fill="#EEA094" stroke="#EEA094" d="M-107.325,370.01l-41.069,141.864L7.477,408.275L-107.325,370.01z"/>
		<path fill="#EC9186" stroke="#EC9186" d="M7.477,408.275l-155.871,103.599l155.871,12.13V408.275z"/>
		<path fill="#EC8D80" stroke="#EC8D80" d="M7.477,408.275v115.729l166.137-85.866L7.477,408.275z"/>
		<path fill="#E97E70" stroke="#E97E70" d="M173.614,438.138L7.477,524.004l183.871,6.536L173.614,438.138z"/>
		<path fill="#E98270" stroke="#E98270" d="M173.614,438.138l17.733,92.402l114.8-173.601L173.614,438.138z"/>
		<path fill="#E7715E" stroke="#E7715E" d="M306.147,356.941l-114.8,173.6l179.202,52.266L306.147,356.941z"/>
		<path fill="#E76C58" stroke="#E76C58" d="M306.147,356.941l64.402,225.864L492.82,496.94L306.147,356.941z"/>
		<path fill="#E67A62" stroke="#E67A62" d="M306.147,356.941L492.82,496.94l-21.466-157.733L306.147,356.941z"/>
		<path fill="#E16E59" stroke="#E16E59" d="M471.354,339.207L492.82,496.94l114.802-122.265L471.354,339.207z"/>
		<path fill="#DE5B4B" stroke="#DE5B4B" d="M607.621,374.676L492.82,496.94l132.535,14.934L607.621,374.676z"/>
		<path fill="#DA5545" stroke="#DA5545" d="M607.621,374.676l17.733,137.197l76.533-22.4L607.621,374.676z"/>
		<path fill="#DA5A4A" stroke="#DA5A4A" d="M607.621,374.676l94.267,114.797l72.805-135.33L607.621,374.676z"/>
		<path fill="#D65344" stroke="#D65344" d="M774.692,354.143l-72.805,135.33L847.49,373.743L774.692,354.143z"/>
		<path fill="#D44739" stroke="#D44739" d="M847.491,373.743L701.888,489.473l170.802,5.602L847.491,373.743z"/>
		<path fill="#D14839" stroke="#D14839" d="M847.491,373.743l25.197,121.331l145.609-158.666L847.491,373.743z"/>
		<path fill="#D03E2F" stroke="#D03E2F" d="M1018.299,336.408l-145.61,158.666l159.607,40.131L1018.299,336.408z"/>
		<path fill="#CC4233" stroke="#CC4233" d="M1018.299,336.408l13.998,198.797l156.804-156.795L1018.299,336.408z"/>
		<path fill="#C83629" stroke="#C83629" d="M1189.101,378.409l-156.804,156.795l175.471,22.404L1189.101,378.409z"/>
		<path fill="#C5382B" stroke="#C5382B" d="M1189.101,378.409l18.667,179.2l59.732-81.202L1189.101,378.409z"/>
		<path fill="#C54436" stroke="#C54436" d="M1189.101,378.409l78.399,97.998l52.267-126.931L1189.101,378.409z"/>
		<path fill="#C22F22" stroke="#C22F22" d="M1319.767,349.477L1267.5,476.407l44.8,378.006L1319.767,349.477z"/>
		<path fill="#EA7E77" stroke="#EA7E77" d="M-148.395,511.874l86.803,159.606L7.477,524.004L-148.395,511.874z"/>
		<path fill="#E8776B" stroke="#E8776B" d="M7.477,524.004L-61.592,671.48l139.07-19.606L7.477,524.004z"/>
		<path fill="#E77064" stroke="#E77064" d="M7.477,524.004l70.002,127.869L191.348,530.54L7.477,524.004z"/>
		<path fill="#E76C5E" stroke="#E76C5E" d="M191.347,530.541L77.479,651.874l63.466-5.596L191.347,530.541z"/>
		<path fill="#E66354" stroke="#E66354" d="M191.347,530.541l-50.402,115.737l229.604-63.473L191.347,530.541z"/>
		<path fill="#E6604E" stroke="#E6604E" d="M370.549,582.806l-229.604,63.473l211.871,69.07L370.549,582.806z"/>
		<path fill="#E45844" stroke="#E45844" d="M370.549,582.806l-17.733,132.543l96.137-58.812L370.549,582.806z"/>
		<path fill="#E25342" stroke="#E25342" d="M370.549,582.806l78.403,73.731L492.82,496.94L370.549,582.806z"/>
		<path fill="#DF4F3E" stroke="#DF4F3E" d="M492.82,496.94l-43.867,159.598l176.402-144.664L492.82,496.94z"/>
		<path fill="#DF4938" stroke="#DF4938" d="M625.355,511.874L448.952,656.538l118.536,61.613L625.355,511.874z"/>
		<path fill="#DA4331" stroke="#DA4331" d="M625.355,511.874l-57.866,206.277l187.598-75.61L625.355,511.874z"/>
		<path fill="#D84333" stroke="#D84333" d="M625.355,511.874l129.731,130.667l-53.198-153.067L625.355,511.874z"/>
		<path fill="#D53E2F" stroke="#D53E2F" d="M701.888,489.473l53.198,153.067L872.69,495.073L701.888,489.473z"/>
		<path fill="#D23627" stroke="#D23627" d="M872.689,495.074L755.086,642.541l169.875,59.737L872.689,495.074z"/>
		<path fill="#D03324" stroke="#D03324" d="M872.689,495.074l52.271,207.204l107.336-167.073L872.689,495.074z"/>
		<path fill="#CC3122" stroke="#CC3122" d="M1032.297,535.205L924.961,702.278l143.731-27.069L1032.297,535.205z"/>
		<path fill="#CB3122" stroke="#CB3122" d="M1032.297,535.205l36.396,140.004l49.474-10.264L1032.297,535.205z"/>
		<path fill="#C83121" stroke="#C83121" d="M1032.297,535.205l85.869,129.74l89.602-107.336L1032.297,535.205z"/>
		<path fill="#C73021" stroke="#C73021" d="M1207.768,557.609l-89.602,107.336l122.27,45.738L1207.768,557.609z"/>
		<path fill="#C63021" stroke="#C63021" d="M1207.768,557.609l32.668,153.074l27.063-234.276L1207.768,557.609z"/>
		<path fill="#C32F1F" stroke="#C32F1F" d="M1267.5,476.407l-27.064,234.276l71.864,143.729L1267.5,476.407z"/>
	</g>
</g>
<g id="Layer_3" display="none">
	<g display="inline">
		<path fill="#F6FAFB" stroke="#F6FAFB" d="M1325.963,693.746l-15.388-244.508l-39.327,160.725L1325.963,693.746z"/>
		<path fill="#F2F9FB" stroke="#F2F9FB" d="M1203.707,712.557l67.541-102.595l-138.502-25.646L1203.707,712.557z"/>
		<path fill="#EDF7F8" stroke="#EDF7F8" d="M1203.707,712.557l-70.961-128.241l-66.685,116.272L1203.707,712.557z"/>
		<path fill="#E5F3F4" stroke="#E5F3F4" d="M1066.062,700.588l66.685-116.272l-115.416,14.538L1066.062,700.588z"/>
		<path fill="#DFF0F1" stroke="#DFF0F1" d="M1066.062,700.588l-48.732-101.734l-82.928,12.823L1066.062,700.588z"/>
		<path fill="#A1C3A6" stroke="#A1C3A6" d="M382.982,787.791l87.202-127.388l-77.798-75.232L382.982,787.791z"/>
		<path fill="#9ABD9E" stroke="#9ABD9E" d="M382.982,787.791l9.404-202.62l-90.622,201.767L382.982,787.791z"/>
		<path fill="#93B795" stroke="#93B795" d="M301.765,786.936l90.622-201.766l-166.713,37.616L301.765,786.936z"/>
		<path fill="#88A984" stroke="#88A984" d="M138.466,720.251l87.207-97.465l-79.512-58.139L138.466,720.251z"/>
		<path fill="#84A283" stroke="#84A283" d="M138.466,720.251l7.694-155.604L17.922,586.875L138.466,720.251z"/>
		<path fill="#879E82" stroke="#879E82" d="M138.466,720.251L17.922,586.875L14.503,742.48L138.466,720.251z"/>
		<path fill="#809A82" stroke="#809A82" d="M14.503,742.48l3.419-155.604l-3.419-53.854V742.48z"/>
		<path fill="#659173" stroke="#659173" d="M14.503,742.48V533.02l-60.704-477.9L14.503,742.48z"/>
		<path fill="#E8F5F8" stroke="#E8F5F8" d="M1271.248,609.962l39.327-160.725l-123.111,36.757L1271.248,609.962z"/>
		<path fill="#E8F5F8" stroke="#E8F5F8" d="M1271.248,609.962l-83.784-123.968l-54.718,98.32L1271.248,609.962z"/>
		<path fill="#DCEFF2" stroke="#DCEFF2" d="M1132.746,584.315l54.718-98.32l-186.38,8.55L1132.746,584.315z"/>
		<path fill="#DBEFF1" stroke="#DBEFF1" d="M1132.746,584.315l-131.662-89.771l16.245,104.31L1132.746,584.315z"/>
		<path fill="#D4ECEE" stroke="#D4ECEE" d="M1017.329,598.854l-16.244-104.31l-81.219,25.647L1017.329,598.854z"/>
		<path fill="#D5ECEE" stroke="#D5ECEE" d="M1017.329,598.854l-97.463-78.661l14.535,91.484L1017.329,598.854z"/>
		<path fill="#CCE8E5" stroke="#CCE8E5" d="M934.402,611.677l-14.535-91.484L728.36,650.148L934.402,611.677z"/>
		<path fill="#C0E2DE" stroke="#C0E2DE" d="M728.36,650.148l191.507-129.956l-167.567-34.197L728.36,650.148z"/>
		<path fill="#B9DFD5" stroke="#B9DFD5" d="M728.36,650.148l23.938-164.153L640.302,645.866L728.36,650.148z"/>
		<path fill="#ADD9CF" stroke="#ADD9CF" d="M640.302,645.866l111.997-159.871L628.33,432.136L640.302,645.866z"/>
		<path fill="#A2D2BF" stroke="#A2D2BF" d="M640.302,645.866l-11.972-213.73l-126.514,8.55L640.302,645.866z"/>
		<path fill="#A4CEBB" stroke="#A4CEBB" d="M640.302,645.866L501.816,440.684l-31.632,219.72L640.302,645.866z"/>
		<path fill="#9AC6AC" stroke="#9AC6AC" d="M470.185,660.403l31.632-219.72L392.386,585.17L470.185,660.403z"/>
		<path fill="#8DC2A5" stroke="#8DC2A5" d="M392.386,585.17l109.43-144.486l-76.088,17.1L392.386,585.17z"/>
		<path fill="#89BA9B" stroke="#89BA9B" d="M392.386,585.17l33.342-127.388l-208.604,59.845L392.386,585.17z"/>
		<path fill="#86B491" stroke="#86B491" d="M392.386,585.17l-175.263-67.543l8.55,105.159L392.386,585.17z"/>
		<path fill="#80AB84" stroke="#80AB84" d="M225.673,622.787l-8.55-105.159l-70.962,47.021L225.673,622.787z"/>
		<path fill="#7BA682" stroke="#7BA682" d="M146.161,564.648l70.962-47.021l-99.176-57.28L146.161,564.648z"/>
		<path fill="#79A182" stroke="#79A182" d="M146.161,564.648l-28.212-104.302L14.503,533.02L146.161,564.648z"/>
		<path fill="#7C9E82" stroke="#7C9E82" d="M146.161,564.648L14.503,533.02l3.419,53.855L146.161,564.648z"/>
		<path fill="#CAE6DF" stroke="#CAE6DF" d="M1310.575,449.238l-23.938-94.905l-110.287,11.118L1310.575,449.238z"/>
		<path fill="#D1EAE7" stroke="#D1EAE7" d="M1310.575,449.238l-134.227-83.787l11.114,120.543L1310.575,449.238z"/>
		<path fill="#C4E4DD" stroke="#C4E4DD" d="M1187.464,485.995l-11.114-120.543l-100.029,2.563L1187.464,485.995z"/>
		<path fill="#CAE7E4" stroke="#CAE7E4" d="M1187.464,485.995L1076.32,368.016l-75.235,126.529L1187.464,485.995z"/>
		<path fill="#B5DDD6" stroke="#B5DDD6" d="M1001.085,494.544l75.234-126.528L917.302,325.27L1001.085,494.544z"/>
		<path fill="#BDE1DD" stroke="#BDE1DD" d="M1001.085,494.544L917.302,325.27l2.564,194.923L1001.085,494.544z"/>
		<path fill="#B1DBD3" stroke="#B1DBD3" d="M919.866,520.192l-2.564-194.923L752.299,485.995L919.866,520.192z"/>
		<path fill="#9FD2C3" stroke="#9FD2C3" d="M752.299,485.995L917.302,325.27L721.52,360.316L752.299,485.995z"/>
		<path fill="#9CD1BF" stroke="#9CD1BF" d="M752.299,485.995L721.52,360.316l-93.189,71.818L752.299,485.995z"/>
		<path fill="#92CCB5" stroke="#92CCB5" d="M628.33,432.135l93.189-71.818l-88.915,29.927L628.33,432.135z"/>
		<path fill="#8AC8AB" stroke="#8AC8AB" d="M628.33,432.135l4.274-41.892l-116.254-35.052L628.33,432.135z"/>
		<path fill="#86C5A7" stroke="#86C5A7" d="M628.33,432.135l-111.979-76.943l-14.534,85.492L628.33,432.135z"/>
		<path fill="#81BF9D" stroke="#81BF9D" d="M501.816,440.684l14.534-85.492l-90.622,102.592L501.816,440.684z"/>
		<path fill="#75B68E" stroke="#75B68E" d="M425.729,457.783l90.622-102.592L366.74,316.729L425.729,457.783z"/>
		<path fill="#6CAC7F" stroke="#6CAC7F" d="M425.729,457.783L366.74,316.729l-148.761,55.562L425.729,457.783z"/>
		<path fill="#74AD83" stroke="#74AD83" d="M425.729,457.783l-207.75-85.492l-0.854,145.337L425.729,457.783z"/>
		<path fill="#6DA277" stroke="#6DA277" d="M217.123,517.627l0.854-145.337l-100.03,88.057L217.123,517.627z"/>
		<path fill="#619B6B" stroke="#619B6B" d="M117.948,460.347l100.03-88.057l-82.077-30.782L117.948,460.347z"/>
		<path fill="#61956C" stroke="#61956C" d="M117.948,460.347l17.953-118.838L7.663,400.503L117.948,460.347z"/>
		<path fill="#6D9677" stroke="#6D9677" d="M117.948,460.347L7.663,400.503l6.84,132.517L117.948,460.347z"/>
		<path fill="#4E8056" stroke="#4E8056" d="M14.503,533.02l-6.84-132.517L-46.201,55.119L14.503,533.02z"/>
		<path fill="#A8D1B5" stroke="#A8D1B5" d="M1286.637,354.333l47.022-169.267l-176.974,32.483L1286.637,354.333z"/>
		<path fill="#B2DAC6" stroke="#B2DAC6" d="M1286.637,354.333l-129.95-136.783l19.663,147.901L1286.637,354.333z"/>
		<path fill="#ACD8C4" stroke="#ACD8C4" d="M1176.35,365.451l-19.663-147.901l-80.366,150.466L1176.35,365.451z"/>
		<path fill="#9FD1B8" stroke="#9FD1B8" d="M1076.32,368.016l80.366-150.466l-130.809,41.895L1076.32,368.016z"/>
		<path fill="#A2D3BF" stroke="#A2D3BF" d="M1076.32,368.016l-50.44-108.571L917.302,325.27L1076.32,368.016z"/>
		<path fill="#94CBB1" stroke="#94CBB1" d="M917.302,325.27l108.577-65.825L877.12,262.01L917.302,325.27z"/>
		<path fill="#93CCB1" stroke="#93CCB1" d="M917.302,325.27l-40.182-63.26L721.52,360.316L917.302,325.27z"/>
		<path fill="#83C09F" stroke="#83C09F" d="M721.52,360.316l155.602-98.308l-82.074-49.586L721.52,360.316z"/>
		<path fill="#79B990" stroke="#79B990" d="M721.52,360.316l73.526-147.894l-180.393-2.569L721.52,360.316z"/>
		<path fill="#80C19E" stroke="#80C19E" d="M721.52,360.316L614.654,209.855l17.951,180.389L721.52,360.316z"/>
		<path fill="#79B992" stroke="#79B992" d="M632.605,390.244l-17.951-180.389l-98.303,145.336L632.605,390.244z"/>
		<path fill="#64A574" stroke="#64A574" d="M516.351,355.191l98.303-145.336L524.9,179.082L516.351,355.191z"/>
		<path fill="#60A16E" stroke="#60A16E" d="M516.351,355.191l8.549-176.109l-111.995,75.233L516.351,355.191z"/>
		<path fill="#66A675" stroke="#66A675" d="M516.351,355.191L412.905,254.315l-46.166,62.414L516.351,355.191z"/>
		<path fill="#55945A" stroke="#55945A" d="M366.739,316.729l46.166-62.414l-187.231-0.854L366.739,316.729z"/>
		<path fill="#59965D" stroke="#59965D" d="M366.739,316.729L225.673,253.46l-7.694,118.83L366.739,316.729z"/>
		<path fill="#569157" stroke="#569157" d="M217.979,372.291l7.694-118.83l-89.771,88.048L217.979,372.291z"/>
		<path fill="#4C8446" stroke="#4C8446" d="M135.901,341.509l89.771-88.048l-70.108-21.373L135.901,341.509z"/>
		<path fill="#43793D" stroke="#43793D" d="M135.901,341.509l19.664-109.421l-165-48.735L135.901,341.509z"/>
		<path fill="#4D804F" stroke="#4D804F" d="M135.901,341.509L-9.435,183.353l17.099,217.15L135.901,341.509z"/>
		<path fill="#37672F" stroke="#37672F" d="M7.663,400.503l-17.099-217.15L-46.201,55.119L7.663,400.503z"/>
		<path fill="#8FB789" stroke="#8FB789" d="M1333.659,185.066l-3.422-75.237l-123.11-21.374L1333.659,185.066z"/>
		<path fill="#8EBC93" stroke="#8EBC93" d="M1333.659,185.066l-126.532-96.61l-50.44,129.094L1333.659,185.066z"/>
		<path fill="#83B284" stroke="#83B284" d="M1156.687,217.55l50.44-129.094l-144.486,0.855L1156.687,217.55z"/>
		<path fill="#8ABB96" stroke="#8ABB96" d="M1156.687,217.55l-94.046-128.238l-36.762,170.133L1156.687,217.55z"/>
		<path fill="#79AD80" stroke="#79AD80" d="M1025.879,259.445l36.762-170.133L890.798,63.664L1025.879,259.445z"/>
		<path fill="#7EB690" stroke="#7EB690" d="M1025.879,259.445L890.798,63.664L877.12,262.01L1025.879,259.445z"/>
		<path fill="#74AE82" stroke="#74AE82" d="M877.12,262.01l13.678-198.346l-95.752,148.76L877.12,262.01z"/>
		<path fill="#639C69" stroke="#639C69" d="M795.046,212.424l95.752-148.76L742.895,52.55L795.046,212.424z"/>
		<path fill="#5F9961" stroke="#5F9961" d="M795.046,212.424L742.895,52.55l-48.733,40.181L795.046,212.424z"/>
		<path fill="#62A270" stroke="#62A270" d="M795.046,212.424L694.16,92.731l-79.507,117.124L795.046,212.424z"/>
		<path fill="#559153" stroke="#559153" d="M614.654,209.855L694.16,92.731L524.044,77.338L614.654,209.855z"/>
		<path fill="#539154" stroke="#539154" d="M614.654,209.855L524.044,77.338l0.854,101.744L614.654,209.855z"/>
		<path fill="#477F3C" stroke="#477F3C" d="M524.899,179.082l-0.854-101.744L379.563,65.369L524.899,179.082z"/>
		<path fill="#4C8746" stroke="#4C8746" d="M524.899,179.082L379.563,65.369l33.342,188.946L524.899,179.082z"/>
		<path fill="#417E35" stroke="#417E35" d="M412.905,254.315L379.563,65.369l-89.767,60.704L412.905,254.315z"/>
		<path fill="#488441" stroke="#488441" d="M412.905,254.315L289.796,126.073L225.673,253.46L412.905,254.315z"/>
		<path fill="#3B7328" stroke="#3B7328" d="M225.673,253.46l64.123-127.388l-137.65-13.679L225.673,253.46z"/>
		<path fill="#3D7530" stroke="#3D7530" d="M225.673,253.46l-73.527-141.066l3.419,119.693L225.673,253.46z"/>
		<path fill="#376A26" stroke="#376A26" d="M155.565,232.087l-3.419-119.693L-9.435,183.353L155.565,232.087z"/>
		<path fill="#2B571A" stroke="#2B571A" d="M-9.435,183.353l161.581-70.958L-46.201,55.119L-9.435,183.353z"/>
		<path fill="#88A783" stroke="#88A783" d="M1330.238,109.83l-58.135-129.098l-64.978,107.724L1330.238,109.83z"/>
		<path fill="#809E80" stroke="#809E80" d="M1207.127,88.456l64.977-107.724l-134.229,30.777L1207.127,88.456z"/>
		<path fill="#7EA27E" stroke="#7EA27E" d="M1207.127,88.456l-69.252-76.947l-75.234,77.802L1207.127,88.456z"/>
		<path fill="#749579" stroke="#749579" d="M1062.641,89.312l75.234-77.802L994.246-67.999L1062.641,89.312z"/>
		<path fill="#6C9075" stroke="#6C9075" d="M1062.641,89.312l-68.395-157.31L895.927,7.239L1062.641,89.312z"/>
		<path fill="#6D9875" stroke="#6D9875" d="M1062.641,89.312L895.927,7.239l-5.129,56.425L1062.641,89.312z"/>
		<path fill="#61906A" stroke="#61906A" d="M890.798,63.664l5.129-56.425L742.895,52.55L890.798,63.664z"/>
		<path fill="#5B8466" stroke="#5B8466" d="M742.895,52.55L895.927,7.239l-96.605-77.802L742.895,52.55z"/>
		<path fill="#53805C" stroke="#53805C" d="M742.895,52.55l56.427-123.113L647.992,19.204L742.895,52.55z"/>
		<path fill="#55895A" stroke="#55895A" d="M742.895,52.55l-94.901-33.346l46.168,73.527L742.895,52.55z"/>
		<path fill="#4F8451" stroke="#4F8451" d="M694.16,92.731l-46.168-73.527L524.044,77.338L694.16,92.731z"/>
		<path fill="#457845" stroke="#457845" d="M524.044,77.338l123.948-58.135l-159-11.965L524.044,77.338z"/>
		<path fill="#3F7238" stroke="#3F7238" d="M524.044,77.338l-35.053-70.1l-109.43,58.13L524.044,77.338z"/>
		<path fill="#36622D" stroke="#36622D" d="M379.563,65.369l109.43-58.13L359.044-79.963L379.563,65.369z"/>
		<path fill="#2F5C25" stroke="#2F5C25" d="M379.563,65.369L359.044-79.963L288.937,6.384L379.563,65.369z"/>
		<path fill="#366825" stroke="#366825" d="M379.563,65.369L288.937,6.384l0.859,119.689L379.563,65.369z"/>
		<path fill="#32641E" stroke="#32641E" d="M289.796,126.073L288.937,6.384l-136.792,106.01L289.796,126.073z"/>
		<path fill="#2A5519" stroke="#2A5519" d="M152.146,112.394L288.937,6.384l-110.29-30.781L152.146,112.394z"/>
		<path fill="#244A15" stroke="#244A15" d="M152.146,112.394l26.502-136.792L25.618-38.928L152.146,112.394z"/>
		<path fill="#234915" stroke="#234915" d="M152.146,112.394L25.617-38.927l-71.818,94.046L152.146,112.394z"/>
		<path fill="#77917C" stroke="#77917C" d="M1272.104-19.268l-277.855-48.73l143.629,79.508L1272.104-19.268z"/>
		<path fill="#61826D" stroke="#61826D" d="M994.246-67.999l-194.926-2.564l96.605,77.802L994.246-67.999z"/>
		<path fill="#3D6741" stroke="#3D6741" d="M799.321-70.563l-440.276-9.4L488.992,7.239L799.321-70.563z"/>
		<path fill="#4A7852" stroke="#4A7852" d="M799.321-70.563L488.992,7.239l159,11.965L799.321-70.563z"/>
		<path fill="#274E1A" stroke="#274E1A" d="M359.044-79.963L178.647-24.397l110.29,30.781L359.044-79.963z"/>
	</g>
</g>
<g>
	<defs>
		<rect id="SVGID_1_" x="0" width="1280.126" height="600.095"/>
	</defs>
	<clipPath id="SVGID_2_">
		<use xlink:href="#SVGID_1_"  overflow="visible"/>
	</clipPath>
	<g id="Layer_2" clip-path="url(#SVGID_2_)">
		<g>
			<path fill="#EBF7FC" stroke="#EBF7FC" d="M-144.956-153.63L-15.4,0.1l61.878-122.793L-144.956-153.63z"/>
			<path fill="#D7ECF9" stroke="#D7ECF9" d="M46.478-122.693L-15.4,0.1l204.002,31.897L46.478-122.693z"/>
			<path fill="#DDEDF7" stroke="#DDEDF7" d="M46.478-122.693l142.124,154.69l-57.044-208.832L46.478-122.693z"/>
			<path fill="#D7EAF2" stroke="#D7EAF2" d="M131.558-176.834l57.044,208.832l154.693-193.363L131.558-176.834z"/>
			<path fill="#C5E2EF" stroke="#C5E2EF" d="M343.295-161.365L188.602,31.998l91.848,4.837L343.295-161.365z"/>
			<path fill="#BBDDED" stroke="#BBDDED" d="M343.295-161.365l-62.847,198.2l181.767,23.203L343.295-161.365z"/>
			<path fill="#C1DCEA" stroke="#C1DCEA" d="M343.295-161.365l118.92,221.403l1.937-237.842L343.295-161.365z"/>
			<path fill="#B5D7E8" stroke="#B5D7E8" d="M464.151-177.804l-1.937,237.842l138.263-176.93L464.151-177.804z"/>
			<path fill="#A7CFE5" stroke="#A7CFE5" d="M600.477-116.892L462.215,60.038l149.862-72.51L600.477-116.892z"/>
			<path fill="#9CC6DF" stroke="#9CC6DF" d="M600.477-116.892l11.602,104.42l124.721,45.438L600.477-116.892z"/>
			<path fill="#A1C6DE" stroke="#A1C6DE" d="M600.477-116.892L736.798,32.968l7.729-233.005L600.477-116.892z"/>
			<path fill="#92BBD8" stroke="#92BBD8" d="M744.528-200.037l-7.729,233.005l110.217-69.611L744.528-200.037z"/>
			<path fill="#7BA0C4" stroke="#7BA0C4" d="M958.2-199.069l15.47,181.762l131.49,19.336L958.2-199.069z"/>
			<path fill="#7F99BE" stroke="#7F99BE" d="M958.2-199.069L1105.16,2.028l104.417-156.629L958.2-199.069z"/>
			<path fill="#728BB6" stroke="#728BB6" d="M1209.577-154.601L1105.16,2.028l171.129-10.633L1209.577-154.601z"/>
			<path fill="#5B78AD" stroke="#5B78AD" d="M1343.966-151.697L1276.289-8.604l18.367,315.188L1343.966-151.697z"/>
			<path fill="#BADCF3" stroke="#BADCF3" d="M-15.4,0.1l-37.706,197.229l233.005-59.941L-15.4,0.1z"/>
			<path fill="#BFDFF4" stroke="#BFDFF4" d="M-15.4,0.1l195.299,137.288l8.703-105.391L-15.4,0.1z"/>
			<path fill="#B4DAF1" stroke="#B4DAF1" d="M188.602,31.998l-8.703,105.391l100.55-100.554L188.602,31.998z"/>
			<path fill="#A7D2EF" stroke="#A7D2EF" d="M280.448,36.835L179.898,137.389l153.726,21.271L280.448,36.835z"/>
			<path fill="#A6D0EB" stroke="#A6D0EB" d="M280.448,36.835l53.175,121.822l128.592-98.619L280.448,36.835z"/>
			<path fill="#95C7E9" stroke="#95C7E9" d="M462.215,60.038l-128.592,98.619l71.548,11.603L462.215,60.038z"/>
			<path fill="#91C4E8" stroke="#91C4E8" d="M462.215,60.038L405.171,170.26l176.932-61.876L462.215,60.038z"/>
			<path fill="#98C8E5" stroke="#98C8E5" d="M462.215,60.038l119.888,48.346l29.976-120.854L462.215,60.038z"/>
			<path fill="#8EC0E1" stroke="#8EC0E1" d="M612.077-12.472l-29.976,120.854l154.695-75.416L612.077-12.472z"/>
			<path fill="#7FB5DD" stroke="#7FB5DD" d="M736.798,32.968l-154.695,75.416l162.425,35.773L736.798,32.968z"/>
			<path fill="#73ACD8" stroke="#73ACD8" d="M736.798,32.968l7.729,111.189l79.283-16.438L736.798,32.968z"/>
			<path fill="#7DB1D5" stroke="#7DB1D5" d="M736.798,32.968l87.013,94.752l23.204-164.363L736.798,32.968z"/>
			<path fill="#78AACF" stroke="#78AACF" d="M847.015-36.645l-23.204,164.363L973.67-17.308L847.015-36.645z"/>
			<path fill="#6699C7" stroke="#6699C7" d="M973.67-17.308L823.811,127.719l246.545-34.804L973.67-17.308z"/>
			<path fill="#6A95C0" stroke="#6A95C0" d="M973.67-17.308l96.686,110.223l34.805-90.887L973.67-17.308z"/>
			<path fill="#5C86B9" stroke="#5C86B9" d="M1105.16,2.028l-34.805,90.887l140.19,18.365L1105.16,2.028z"/>
			<path fill="#6184B5" stroke="#6184B5" d="M1105.16,2.028l105.386,109.252l65.743-119.885L1105.16,2.028z"/>
			<path fill="#5176B0" stroke="#5176B0" d="M1276.289-8.604l-65.743,119.885l34.806,82.184L1276.289-8.604z"/>
			<path fill="#3F68A9" stroke="#3F68A9" d="M1276.289-8.604l-30.938,202.067l49.305,113.12L1276.289-8.604z"/>
			<path fill="#A3CAEB" stroke="#A3CAEB" d="M-53.106,197.329l52.208,44.479l180.797-104.42L-53.106,197.329z"/>
			<path fill="#8FBBE3" stroke="#8FBBE3" d="M179.898,137.388L-0.899,241.808l188.533,101.52L179.898,137.388z"/>
			<path fill="#85B2DB" stroke="#85B2DB" d="M179.898,137.388l7.736,205.938l52.211-16.438L179.898,137.388z"/>
			<path fill="#8EBEE2" stroke="#8EBEE2" d="M179.898,137.388l59.947,189.5l93.777-168.23L179.898,137.388z"/>
			<path fill="#80B2DC" stroke="#80B2DC" d="M333.623,158.657l-93.777,168.23l173.062-67.682L333.623,158.657z"/>
			<path fill="#85BAE1" stroke="#85BAE1" d="M333.623,158.657l79.284,100.549l-7.736-88.946L333.623,158.657z"/>
			<path fill="#82B9E1" stroke="#82B9E1" d="M405.171,170.26l7.736,88.946l169.195-150.822L405.171,170.26z"/>
			<path fill="#6EA8D6" stroke="#6EA8D6" d="M582.103,108.384L412.908,259.206l182.729,77.346L582.103,108.384z"/>
			<path fill="#68A4D5" stroke="#68A4D5" d="M582.103,108.384l13.535,228.168l148.89-192.395L582.103,108.384z"/>
			<path fill="#548FC6" stroke="#548FC6" d="M744.528,144.157l-148.89,192.395l126.656,12.571L744.528,144.157z"/>
			<path fill="#4F8CC5" stroke="#4F8CC5" d="M744.528,144.157l-22.233,204.966l95.717-78.314L744.528,144.157z"/>
			<path fill="#5C98CD" stroke="#5C98CD" d="M744.528,144.157l73.482,126.651l5.801-143.089L744.528,144.157z"/>
			<path fill="#4985BE" stroke="#4985BE" d="M823.811,127.72l-5.801,143.089l243.642-16.438L823.811,127.72z"/>
			<path fill="#5088C0" stroke="#5088C0" d="M823.811,127.72l237.841,126.65l8.704-161.455L823.811,127.72z"/>
			<path fill="#4A7BB6" stroke="#4A7BB6" d="M1070.356,92.915l-8.704,161.455l148.895-143.09L1070.356,92.915z"/>
			<path fill="#3D6FAE" stroke="#3D6FAE" d="M1210.546,111.28l-148.895,143.09l183.7-60.906L1210.546,111.28z"/>
			<path fill="#2D61A4" stroke="#2D61A4" d="M1245.352,193.464l-183.7,60.906l82.182,84.119L1245.352,193.464z"/>
			<path fill="#28539A" stroke="#28539A" d="M1245.352,193.464l-101.519,145.025l150.823-31.906L1245.352,193.464z"/>
			<path fill="#89A8D4" stroke="#89A8D4" d="M-0.898,241.808l-50.274,155.66l217.536-6.774L-0.898,241.808z"/>
			<path fill="#84A8D4" stroke="#84A8D4" d="M-0.898,241.808l167.262,148.886l21.271-47.367L-0.898,241.808z"/>
			<path fill="#789BCB" stroke="#789BCB" d="M187.635,343.327l-21.271,47.367l73.482-63.806L187.635,343.327z"/>
			<path fill="#6F8FC3" stroke="#6F8FC3" d="M239.846,326.888l-73.482,63.806l150.827,87.986L239.846,326.888z"/>
			<path fill="#6E96C6" stroke="#6E96C6" d="M239.846,326.888l77.345,151.792l95.718-219.474L239.846,326.888z"/>
			<path fill="#6087BD" stroke="#6087BD" d="M412.907,259.206L317.19,478.681l174.029-20.305L412.907,259.206z"/>
			<path fill="#5D8DC2" stroke="#5D8DC2" d="M412.907,259.206l78.312,199.17l104.418-121.824L412.907,259.206z"/>
			<path fill="#4B76B2" stroke="#4B76B2" d="M595.638,336.552L491.22,458.376l121.822,24.172L595.638,336.552z"/>
			<path fill="#4372B1" stroke="#4372B1" d="M595.638,336.552l17.404,145.996l101.517-68.651L595.638,336.552z"/>
			<path fill="#487BB7" stroke="#487BB7" d="M595.638,336.552l118.921,77.345l7.735-64.773L595.638,336.552z"/>
			<path fill="#376AAB" stroke="#376AAB" d="M722.294,349.123l-7.735,64.773l180.797-9.664L722.294,349.123z"/>
			<path fill="#3C72B2" stroke="#3C72B2" d="M722.294,349.123l173.062,55.111L818.01,270.809L722.294,349.123z"/>
			<path fill="#376DAE" stroke="#376DAE" d="M818.01,270.809l77.346,133.426l166.296-149.864L818.01,270.809z"/>
			<path fill="#24539A" stroke="#24539A" d="M1061.652,254.37L895.356,404.234l154.694,88.946L1061.652,254.37z"/>
			<path fill="#235097" stroke="#235097" d="M1061.652,254.37l-11.603,238.811l93.783-154.691L1061.652,254.37z"/>
			<path fill="#153E86" stroke="#153E86" d="M1143.833,338.489l-93.783,154.691l113.12-20.306L1143.833,338.489z"/>
			<path fill="#16428B" stroke="#16428B" d="M1143.833,338.489l19.336,134.386l131.487-166.292L1143.833,338.489z"/>
			<path fill="#1D387D" stroke="#1D387D" d="M1294.656,306.583l-131.487,166.292l183.7-42.54L1294.656,306.583z"/>
			<path fill="#758ABE" stroke="#758ABE" d="M-51.174,397.469l49.311,207.872l168.227-214.646L-51.174,397.469z"/>
			<path fill="#6778B1" stroke="#6778B1" d="M166.363,390.694L-1.863,605.341l185.631-36.744L166.363,390.694z"/>
			<path fill="#6279B2" stroke="#6279B2" d="M166.363,390.694l17.404,177.902l95.715-24.173L166.363,390.694z"/>
			<path fill="#637FB6" stroke="#637FB6" d="M166.363,390.694l113.119,153.729l37.708-65.744L166.363,390.694z"/>
			<path fill="#546DA8" stroke="#546DA8" d="M317.19,478.68l-37.708,65.744l142.124,13.54L317.19,478.68z"/>
			<path fill="#5070AC" stroke="#5070AC" d="M317.19,478.68l104.416,79.284l69.613-99.588L317.19,478.68z"/>
			<path fill="#4162A5" stroke="#4162A5" d="M491.22,458.376l-69.613,99.588l182.732,14.5L491.22,458.376z"/>
			<path fill="#3F63A6" stroke="#3F63A6" d="M491.22,458.376l113.119,114.088l8.703-89.916L491.22,458.376z"/>
			<path fill="#305497" stroke="#305497" d="M613.042,482.548l-8.703,89.916l146.959,29L613.042,482.548z"/>
			<path fill="#2E5A9F" stroke="#2E5A9F" d="M613.042,482.548l138.256,118.916l-36.739-187.567L613.042,482.548z"/>
			<path fill="#224892" stroke="#224892" d="M714.559,413.896l36.739,187.567l145.99-28.031L714.559,413.896z"/>
			<path fill="#28539B" stroke="#28539B" d="M714.559,413.896l182.729,159.536l-1.933-169.2L714.559,413.896z"/>
			<path fill="#18418B" stroke="#18418B" d="M895.356,404.234l1.933,169.199l152.762-80.252L895.356,404.234z"/>
			<path fill="#1B397A" stroke="#1B397A" d="M1050.05,493.181l-152.762,80.252l69.616,29L1050.05,493.181z"/>
			<path fill="#1F3268" stroke="#1F3268" d="M1050.05,493.181l-83.146,109.252l242.673,29.009L1050.05,493.181z"/>
			<path fill="#203167" stroke="#203167" d="M1050.05,493.181l159.527,138.261l-46.407-158.566L1050.05,493.181z"/>
			<path fill="#1F2B59" stroke="#1F2B59" d="M1163.169,472.875l46.408,158.566l67.681-4.836L1163.169,472.875z"/>
			<path fill="#202E61" stroke="#202E61" d="M1163.169,472.875l114.089,153.73l69.611-196.271L1163.169,472.875z"/>
			<path fill="#4E689E" stroke="#4E689E" d="M-1.863,605.341l753.161-3.877l-329.691-43.5L-1.863,605.341z"/>
			<path fill="#6071A5" stroke="#6071A5" d="M-1.863,605.341l423.47-47.376l-237.839,10.633L-1.863,605.341z"/>
			<path fill="#576DA5" stroke="#576DA5" d="M183.768,568.597l237.838-10.633l-142.124-13.54L183.768,568.597z"/>
			<path fill="#395A98" stroke="#395A98" d="M421.606,557.964l329.691,43.5l-146.959-29L421.606,557.964z"/>
			<path fill="#143F81" stroke="#143F81" d="M751.298,601.464l215.606,0.969l-69.616-29L751.298,601.464z"/>
		</g>
	</g>
</g>
</svg>
