<?xml version="1.0" encoding="utf-8"?>
<!-- Generator: Adobe Illustrator 16.0.0, SVG Export Plug-In . SVG Version: 6.00 Build 0)  -->
<!DOCTYPE svg PUBLIC "-//W3C//DTD SVG 1.1//EN" "http://www.w3.org/Graphics/SVG/1.1/DTD/svg11.dtd">
<svg version="1.1" id="Layer_1" xmlns="http://www.w3.org/2000/svg" xmlns:xlink="http://www.w3.org/1999/xlink" x="0px" y="0px"
	 width="1280px" height="360px" viewBox="0 0 1280 360" enable-background="new 0 0 1280 360" xml:space="preserve">
<g id="Layer_1_1_" display="none">
	<g display="inline">
		<path fill="#FCF0E9" stroke="#FCF0E9" d="M-146.528-20.137L-17.724,95.598L58.81-14.54L-146.528-20.137z"/>
		<path fill="#F8DFD2" stroke="#F8DFD2" d="M58.81-14.54L-17.724,95.598l191.337,52.267L58.81-14.54z"/>
		<path fill="#F8E0D6" stroke="#F8E0D6" d="M58.81-14.54l114.804,162.404L189.48-44.404L58.81-14.54z"/>
		<path fill="#F6D8CA" stroke="#F6D8CA" d="M189.48-44.404l-15.867,192.269L296.816,12.529L189.48-44.404z"/>
		<path fill="#F5CEC1" stroke="#F5CEC1" d="M189.48-44.404l107.335,56.933L454.55-70.539L189.48-44.404z"/>
		<path fill="#F3CBBB" stroke="#F3CBBB" d="M296.816,12.529L173.614,147.865l185.735-84.002L296.816,12.529z"/>
		<path fill="#F1C8BA" stroke="#F1C8BA" d="M296.816,12.529l62.533,51.333L454.551-70.54L296.816,12.529z"/>
		<path fill="#EFC1B5" stroke="#EFC1B5" d="M454.551-70.539L359.349,63.863L484.42,89.065L454.551-70.539z"/>
		<path fill="#EAB5AB" stroke="#EAB5AB" d="M454.551-70.539L484.42,89.065l159.597-78.402L454.551-70.539z"/>
		<path fill="#E6ADA4" stroke="#E6ADA4" d="M454.551-70.539l189.466,81.202l52.271-40.135L454.551-70.539z"/>
		<path fill="#E8AA9C" stroke="#E8AA9C" d="M644.017,10.663L484.42,89.065l117.604,36.4L644.017,10.663z"/>
		<path fill="#E39F92" stroke="#E39F92" d="M644.017,10.663l-41.993,114.802l160.533-23.333L644.017,10.663z"/>
		<path fill="#E2A29A" stroke="#E2A29A" d="M644.017,10.663l118.54,91.469l-66.27-131.605L644.017,10.663z"/>
		<path fill="#DF9A94" stroke="#DF9A94" d="M696.287-29.473l66.27,131.604l98.002-89.602L696.287-29.473z"/>
		<path fill="#DB908D" stroke="#DB908D" d="M696.287-29.473l164.271,42.002l105.469-65.335L696.287-29.473z"/>
		<path fill="#DC8D84" stroke="#DC8D84" d="M860.559,12.529l-98.002,89.602l68.136,22.4L860.559,12.529z"/>
		<path fill="#D6807B" stroke="#D6807B" d="M860.559,12.529l-29.866,112.002l234.27-18.667L860.559,12.529z"/>
		<path fill="#D58683" stroke="#D58683" d="M860.559,12.529l204.402,93.335l-98.935-158.67L860.559,12.529z"/>
		<path fill="#D28583" stroke="#D28583" d="M966.027-52.806l98.935,158.671L1100.432-4.27L966.027-52.806z"/>
		<path fill="#CF827D" stroke="#CF827D" d="M1100.432-4.271l-35.471,110.135l123.203-42.937L1100.432-4.271z"/>
		<path fill="#CE8483" stroke="#CE8483" d="M1100.432-4.271l87.732,67.2l74.672-131.602L1100.432-4.271z"/>
		<path fill="#CC8380" stroke="#CC8380" d="M1262.836-68.673l-74.672,131.602l52.271,75.602L1262.836-68.673z"/>
		<path fill="#C97B73" stroke="#C97B73" d="M1262.836-68.673l-22.4,207.204L1336.571,230L1262.836-68.673z"/>
		<path fill="#F6D5C3" stroke="#F6D5C3" d="M-17.724,95.598l-129.736,170.804L14.943,216L-17.724,95.598z"/>
		<path fill="#F5D2C0" stroke="#F5D2C0" d="M-17.724,95.598L14.943,216l158.671-68.135L-17.724,95.598z"/>
		<path fill="#F2C0A9" stroke="#F2C0A9" d="M173.614,147.865L14.943,216l155.871,84.936L173.614,147.865z"/>
		<path fill="#F1B69D" stroke="#F1B69D" d="M173.614,147.865l-2.8,153.07L322.016,216L173.614,147.865z"/>
		<path fill="#F2C0A9" stroke="#F2C0A9" d="M173.614,147.865L322.016,216l37.333-152.137L173.614,147.865z"/>
		<path fill="#EFB7A2" stroke="#EFB7A2" d="M359.349,63.863L322.016,216L484.42,89.065L359.349,63.863z"/>
		<path fill="#ECA890" stroke="#ECA890" d="M484.42,89.065L322.016,216l119.469,57.869L484.42,89.065z"/>
		<path fill="#E8A28E" stroke="#E8A28E" d="M484.42,89.065l-42.937,184.804l160.54-148.404L484.42,89.065z"/>
		<path fill="#E4917A" stroke="#E4917A" d="M602.024,125.465l-160.54,148.404l178.271,26.133L602.024,125.465z"/>
		<path fill="#E18975" stroke="#E18975" d="M602.024,125.465l17.731,174.537l97.998-66.27L602.024,125.465z"/>
		<path fill="#E08F80" stroke="#E08F80" d="M602.024,125.465l115.729,108.27l44.804-131.603L602.024,125.465z"/>
		<path fill="#DB8477" stroke="#DB8477" d="M762.557,102.131l-44.804,131.602l112.938-109.201L762.557,102.131z"/>
		<path fill="#DA7A69" stroke="#DA7A69" d="M830.692,124.531L717.753,233.732L879.226,244L830.692,124.531z"/>
		<path fill="#D47468" stroke="#D47468" d="M830.692,124.531L879.226,244l185.735-138.135L830.692,124.531z"/>
		<path fill="#D26959" stroke="#D26959" d="M1064.961,105.865L879.226,244l154.938,30.8L1064.961,105.865z"/>
		<path fill="#CE6A5B" stroke="#CE6A5B" d="M1064.961,105.865L1034.162,274.8l146.54-57.866L1064.961,105.865z"/>
		<path fill="#CD776C" stroke="#CD776C" d="M1064.961,105.865l115.741,111.068l7.462-154.003L1064.961,105.865z"/>
		<path fill="#CC7569" stroke="#CC7569" d="M1188.164,62.929l-7.462,154.004l59.732-78.402L1188.164,62.929z"/>
		<path fill="#C96B5C" stroke="#C96B5C" d="M1240.436,138.531l-59.732,78.402L1336.571,230L1240.436,138.531z"/>
		<path fill="#F3C5B1" stroke="#F3C5B1" d="M-147.461,266.402l40.136,103.603L14.943,216L-147.461,266.402z"/>
		<path fill="#F1B6A2" stroke="#F1B6A2" d="M14.943,216l-122.268,154.004L7.477,408.271L14.943,216z"/>
		<path fill="#F1B39C" stroke="#F1B39C" d="M14.943,216L7.477,408.271l163.337-107.336L14.943,216z"/>
		<path fill="#EC9A87" stroke="#EC9A87" d="M170.813,300.936L7.477,408.271l166.137,29.861L170.813,300.936z"/>
		<path fill="#EC9580" stroke="#EC9580" d="M170.813,300.936l2.8,137.197l132.533-81.197L170.813,300.936z"/>
		<path fill="#EDA388" stroke="#EDA388" d="M170.813,300.936l135.333,56L322.016,216L170.813,300.936z"/>
		<path fill="#ED9E80" stroke="#ED9E80" d="M322.016,216l-15.869,140.936l135.337-83.066L322.016,216z"/>
		<path fill="#E98E74" stroke="#E98E74" d="M441.484,273.869l-135.337,83.066l165.207-17.733L441.484,273.869z"/>
		<path fill="#E5866F" stroke="#E5866F" d="M441.484,273.869l29.869,65.333l148.401-39.2L441.484,273.869z"/>
		<path fill="#E17962" stroke="#E17962" d="M619.755,300.002l-148.401,39.2l136.269,35.469L619.755,300.002z"/>
		<path fill="#DC6B59" stroke="#DC6B59" d="M619.755,300.002l-12.134,74.669l167.07-20.532L619.755,300.002z"/>
		<path fill="#DB735D" stroke="#DB735D" d="M619.755,300.002l154.938,54.137l-56.938-120.404L619.755,300.002z"/>
		<path fill="#D96D5A" stroke="#D96D5A" d="M717.753,233.732l56.938,120.404L879.226,244L717.753,233.732z"/>
		<path fill="#D65F4E" stroke="#D65F4E" d="M879.226,244L774.692,354.139l72.8,19.6L879.226,244z"/>
		<path fill="#D35747" stroke="#D35747" d="M879.226,244l-31.733,129.736l170.808-37.334L879.226,244z"/>
		<path fill="#D15C49" stroke="#D15C49" d="M879.226,244l139.073,92.402l15.863-61.604L879.226,244z"/>
		<path fill="#CE5241" stroke="#CE5241" d="M1034.162,274.8l-15.863,61.603l170.802,42.002L1034.162,274.8z"/>
		<path fill="#CB5A48" stroke="#CB5A48" d="M1034.162,274.8l154.938,103.604l-8.397-161.471L1034.162,274.8z"/>
		<path fill="#C85543" stroke="#C85543" d="M1180.702,216.934l8.397,161.471l130.666-28.934L1180.702,216.934z"/>
		<path fill="#C75F4C" stroke="#C75F4C" d="M1180.702,216.934l139.063,132.539L1336.571,230L1180.702,216.934z"/>
		<path fill="#E98270" stroke="#E98270" d="M173.614,438.133l17.733,92.402l114.8-173.6L173.614,438.133z"/>
		<path fill="#E7715E" stroke="#E7715E" d="M306.147,356.936l-114.8,173.601l179.202,52.266L306.147,356.936z"/>
		<path fill="#E76C58" stroke="#E76C58" d="M306.147,356.936l64.402,225.865l122.271-85.866L306.147,356.936z"/>
		<path fill="#E67A62" stroke="#E67A62" d="M306.147,356.936L492.82,496.935l-21.466-157.732L306.147,356.936z"/>
		<path fill="#E16E59" stroke="#E16E59" d="M471.354,339.202l21.466,157.732l114.802-122.264L471.354,339.202z"/>
		<path fill="#DA5A4A" stroke="#DA5A4A" d="M607.621,374.671l94.267,114.797l72.805-135.329L607.621,374.671z"/>
		<path fill="#D65344" stroke="#D65344" d="M774.692,354.139l-72.805,135.329L847.49,373.738L774.692,354.139z"/>
		<path fill="#D14839" stroke="#D14839" d="M847.491,373.736l25.197,121.332l145.609-158.666L847.491,373.736z"/>
		<path fill="#D03E2F" stroke="#D03E2F" d="M1018.299,336.402l-145.61,158.666l159.607,40.131L1018.299,336.402z"/>
		<path fill="#CC4233" stroke="#CC4233" d="M1018.299,336.402l13.998,198.797l156.804-156.795L1018.299,336.402z"/>
		<path fill="#C54436" stroke="#C54436" d="M1189.101,378.404l78.399,97.998l52.267-126.93L1189.101,378.404z"/>
		<path fill="#C22F22" stroke="#C22F22" d="M1319.767,349.471L1267.5,476.401l44.8,378.006L1319.767,349.471z"/>
	</g>
</g>
<g id="Layer_2" display="none">
	<g display="inline">
		<path fill="#5B78AD" stroke="#5B78AD" d="M-63.84,751.787L3.837,608.693L-14.53,293.506L-63.84,751.787z"/>
		<path fill="#3F68A9" stroke="#3F68A9" d="M3.837,608.693l30.938-202.067l-49.305-113.12L3.837,608.693z"/>
		<path fill="#A3CAEB" stroke="#A3CAEB" d="M1333.233,402.76l-52.208-44.479l-180.797,104.42L1333.233,402.76z"/>
		<path fill="#8FBBE3" stroke="#8FBBE3" d="M1100.229,462.701l180.797-104.42l-188.533-101.52L1100.229,462.701z"/>
		<path fill="#85B2DB" stroke="#85B2DB" d="M1100.229,462.701l-7.736-205.938l-52.211,16.438L1100.229,462.701z"/>
		<path fill="#8EBEE2" stroke="#8EBEE2" d="M1100.229,462.701l-59.947-189.5l-93.777,168.229L1100.229,462.701z"/>
		<path fill="#80B2DC" stroke="#80B2DC" d="M946.503,441.432l93.777-168.229l-173.062,67.682L946.503,441.432z"/>
		<path fill="#85BAE1" stroke="#85BAE1" d="M946.503,441.432l-79.284-100.549l7.736,88.947L946.503,441.432z"/>
		<path fill="#82B9E1" stroke="#82B9E1" d="M874.955,429.83l-7.736-88.947L698.024,491.706L874.955,429.83z"/>
		<path fill="#6EA8D6" stroke="#6EA8D6" d="M698.024,491.706l169.194-150.823l-182.729-77.345L698.024,491.706z"/>
		<path fill="#68A4D5" stroke="#68A4D5" d="M698.024,491.706l-13.535-228.168l-148.89,192.394L698.024,491.706z"/>
		<path fill="#548FC6" stroke="#548FC6" d="M535.599,455.932l148.89-192.394l-126.656-12.571L535.599,455.932z"/>
		<path fill="#4F8CC5" stroke="#4F8CC5" d="M535.599,455.932l22.233-204.965l-95.717,78.314L535.599,455.932z"/>
		<path fill="#5C98CD" stroke="#5C98CD" d="M535.599,455.932l-73.482-126.65l-5.801,143.089L535.599,455.932z"/>
		<path fill="#4985BE" stroke="#4985BE" d="M456.316,472.37l5.801-143.089l-243.642,16.439L456.316,472.37z"/>
		<path fill="#5088C0" stroke="#5088C0" d="M456.316,472.37L218.475,345.721l-8.704,161.454L456.316,472.37z"/>
		<path fill="#4A7BB6" stroke="#4A7BB6" d="M209.771,507.175l8.704-161.455L69.58,488.809L209.771,507.175z"/>
		<path fill="#3D6FAE" stroke="#3D6FAE" d="M69.58,488.809l148.895-143.088l-183.7,60.905L69.58,488.809z"/>
		<path fill="#2D61A4" stroke="#2D61A4" d="M34.775,406.626l183.7-60.905L136.293,261.6L34.775,406.626z"/>
		<path fill="#28539A" stroke="#28539A" d="M34.775,406.626L136.293,261.6L-14.53,293.506L34.775,406.626z"/>
		<path fill="#89A8D4" stroke="#89A8D4" d="M1281.025,358.281l50.274-155.66l-217.536,6.775L1281.025,358.281z"/>
		<path fill="#84A8D4" stroke="#84A8D4" d="M1281.025,358.281l-167.262-148.885l-21.271,47.367L1281.025,358.281z"/>
		<path fill="#789BCB" stroke="#789BCB" d="M1092.491,256.764l21.271-47.367l-73.482,63.805L1092.491,256.764z"/>
		<path fill="#6F8FC3" stroke="#6F8FC3" d="M1040.281,273.201l73.482-63.805l-150.827-87.987L1040.281,273.201z"/>
		<path fill="#6E96C6" stroke="#6E96C6" d="M1040.281,273.201l-77.345-151.792l-95.718,219.474L1040.281,273.201z"/>
		<path fill="#6087BD" stroke="#6087BD" d="M867.219,340.883l95.718-219.474l-174.029,20.305L867.219,340.883z"/>
		<path fill="#5D8DC2" stroke="#5D8DC2" d="M867.219,340.883l-78.312-199.169L684.489,263.538L867.219,340.883z"/>
		<path fill="#4B76B2" stroke="#4B76B2" d="M684.489,263.538l104.418-121.824l-121.822-24.172L684.489,263.538z"/>
		<path fill="#4372B1" stroke="#4372B1" d="M684.489,263.538l-17.404-145.996l-101.517,68.651L684.489,263.538z"/>
		<path fill="#487BB7" stroke="#487BB7" d="M684.489,263.538l-118.921-77.345l-7.735,64.773L684.489,263.538z"/>
		<path fill="#376AAB" stroke="#376AAB" d="M557.832,250.967l7.735-64.773l-180.797,9.664L557.832,250.967z"/>
		<path fill="#3C72B2" stroke="#3C72B2" d="M557.832,250.967l-173.062-55.111l77.346,133.426L557.832,250.967z"/>
		<path fill="#376DAE" stroke="#376DAE" d="M462.116,329.281l-77.346-133.426L218.475,345.721L462.116,329.281z"/>
		<path fill="#24539A" stroke="#24539A" d="M218.475,345.721l166.296-149.865l-154.694-88.946L218.475,345.721z"/>
		<path fill="#235097" stroke="#235097" d="M218.475,345.721l11.603-238.812L136.293,261.6L218.475,345.721z"/>
		<path fill="#153E86" stroke="#153E86" d="M136.293,261.6l93.783-154.69l-113.12,20.306L136.293,261.6z"/>
		<path fill="#16428B" stroke="#16428B" d="M136.293,261.6l-19.336-134.385L-14.53,293.506L136.293,261.6z"/>
		<path fill="#1D387D" stroke="#1D387D" d="M-14.53,293.506l131.487-166.292l-183.7,42.54L-14.53,293.506z"/>
		<path fill="#758ABE" stroke="#758ABE" d="M1331.3,202.621L1281.99-5.251l-168.227,214.647L1331.3,202.621z"/>
		<path fill="#6778B1" stroke="#6778B1" d="M1113.764,209.396L1281.99-5.251l-185.631,36.744L1113.764,209.396z"/>
		<path fill="#6279B2" stroke="#6279B2" d="M1113.764,209.396L1096.36,31.493l-95.715,24.173L1113.764,209.396z"/>
		<path fill="#637FB6" stroke="#637FB6" d="M1113.764,209.396l-113.119-153.73l-37.708,65.744L1113.764,209.396z"/>
		<path fill="#546DA8" stroke="#546DA8" d="M962.937,121.409l37.708-65.744l-142.124-13.54L962.937,121.409z"/>
		<path fill="#5070AC" stroke="#5070AC" d="M962.937,121.409L858.521,42.125l-69.613,99.588L962.937,121.409z"/>
		<path fill="#4162A5" stroke="#4162A5" d="M788.906,141.714l69.613-99.588l-182.732-14.5L788.906,141.714z"/>
		<path fill="#3F63A6" stroke="#3F63A6" d="M788.906,141.714L675.787,27.625l-8.703,89.916L788.906,141.714z"/>
		<path fill="#305497" stroke="#305497" d="M667.084,117.542l8.703-89.916l-146.959-29L667.084,117.542z"/>
		<path fill="#2E5A9F" stroke="#2E5A9F" d="M667.084,117.542L528.828-1.375l36.739,187.566L667.084,117.542z"/>
		<path fill="#224892" stroke="#224892" d="M565.568,186.191L528.828-1.375l-145.99,28.031L565.568,186.191z"/>
		<path fill="#28539B" stroke="#28539B" d="M565.568,186.191L382.838,26.656l1.933,169.199L565.568,186.191z"/>
		<path fill="#18418B" stroke="#18418B" d="M384.771,195.855l-1.933-169.199l-152.762,80.252L384.771,195.855z"/>
		<path fill="#1B397A" stroke="#1B397A" d="M230.076,106.909l152.762-80.252l-69.616-29L230.076,106.909z"/>
		<path fill="#1F3268" stroke="#1F3268" d="M230.076,106.909L313.222-2.343L70.549-31.353L230.076,106.909z"/>
		<path fill="#203167" stroke="#203167" d="M230.076,106.909L70.549-31.353l46.407,158.567L230.076,106.909z"/>
		<path fill="#1F2B59" stroke="#1F2B59" d="M116.957,127.214L70.549-31.353L2.868-26.517L116.957,127.214z"/>
		<path fill="#202E61" stroke="#202E61" d="M116.957,127.214L2.868-26.517l-69.611,196.271L116.957,127.214z"/>
		<path fill="#4E689E" stroke="#4E689E" d="M1281.99-5.251L528.828-1.375l329.691,43.5L1281.99-5.251z"/>
		<path fill="#6071A5" stroke="#6071A5" d="M1281.99-5.251L858.52,42.125l237.839-10.633L1281.99-5.251z"/>
		<path fill="#576DA5" stroke="#576DA5" d="M1096.359,31.493L858.521,42.125l142.124,13.54L1096.359,31.493z"/>
		<path fill="#395A98" stroke="#395A98" d="M858.521,42.125l-329.691-43.5l146.959,29L858.521,42.125z"/>
		<path fill="#143F81" stroke="#143F81" d="M528.828-1.375L313.222-2.343l69.616,29L528.828-1.375z"/>
	</g>
</g>
<g>
	<defs>
		<rect id="SVGID_1_" x="0" width="1280.126" height="360"/>
	</defs>
	<clipPath id="SVGID_2_">
		<use xlink:href="#SVGID_1_"  overflow="visible"/>
	</clipPath>
	<g id="Layer_3" clip-path="url(#SVGID_2_)">
		<g>
			<path fill="#659173" stroke="#659173" d="M1265.623-382.475v209.46l60.704,477.901L1265.623-382.475z"/>
			<path fill="#CAE6DF" stroke="#CAE6DF" d="M-30.449-89.232L-6.51,5.673L103.777-5.445L-30.449-89.232z"/>
			<path fill="#B5DDD6" stroke="#B5DDD6" d="M279.041-134.539L203.807-8.01l159.019,42.746L279.041-134.539z"/>
			<path fill="#BDE1DD" stroke="#BDE1DD" d="M279.041-134.539l83.783,169.275l-2.564-194.922L279.041-134.539z"/>
			<path fill="#B1DBD3" stroke="#B1DBD3" d="M360.26-160.188l2.564,194.922l165.003-160.724L360.26-160.188z"/>
			<path fill="#9FD2C3" stroke="#9FD2C3" d="M527.827-125.989L362.824,34.736L558.607-0.312L527.827-125.989z"/>
			<path fill="#9CD1BF" stroke="#9CD1BF" d="M527.827-125.989L558.607-0.312l93.189-71.817L527.827-125.989z"/>
			<path fill="#92CCB5" stroke="#92CCB5" d="M651.796-72.13L558.607-0.312l88.915-29.926L651.796-72.13z"/>
			<path fill="#8AC8AB" stroke="#8AC8AB" d="M651.796-72.13l-4.274,41.892L763.776,4.814L651.796-72.13z"/>
			<path fill="#86C5A7" stroke="#86C5A7" d="M651.796-72.13L763.776,4.812l14.534-85.491L651.796-72.13z"/>
			<path fill="#81BF9D" stroke="#81BF9D" d="M778.311-80.679L763.777,4.812l90.622-102.591L778.311-80.679z"/>
			<path fill="#75B68E" stroke="#75B68E" d="M854.398-97.777L763.776,4.814l149.611,38.463L854.398-97.777z"/>
			<path fill="#6CAC7F" stroke="#6CAC7F" d="M854.398-97.777l58.989,141.055l148.761-55.562L854.398-97.777z"/>
			<path fill="#619B6B" stroke="#619B6B" d="M1162.179-100.342l-100.03,88.057l82.077,30.782L1162.179-100.342z"/>
			<path fill="#61956C" stroke="#61956C" d="M1162.179-100.342l-17.953,118.838l128.237-58.994L1162.179-100.342z"/>
			<path fill="#4E8056" stroke="#4E8056" d="M1265.623-173.015l6.84,132.517l53.864,345.385L1265.623-173.015z"/>
			<path fill="#A8D1B5" stroke="#A8D1B5" d="M-6.51,5.672l-47.022,169.268l176.974-32.483L-6.51,5.672z"/>
			<path fill="#B2DAC6" stroke="#B2DAC6" d="M-6.51,5.672l129.95,136.783l-19.663-147.9L-6.51,5.672z"/>
			<path fill="#ACD8C4" stroke="#ACD8C4" d="M103.777-5.445l19.663,147.9L203.807-8.01L103.777-5.445z"/>
			<path fill="#9FD1B8" stroke="#9FD1B8" d="M203.807-8.01l-80.366,150.466l130.809-41.896L203.807-8.01z"/>
			<path fill="#A2D3BF" stroke="#A2D3BF" d="M203.807-8.01l50.44,108.57l108.577-65.824L203.807-8.01z"/>
			<path fill="#94CBB1" stroke="#94CBB1" d="M362.824,34.736l-108.577,65.824l148.759-2.564L362.824,34.736z"/>
			<path fill="#93CCB1" stroke="#93CCB1" d="M362.824,34.736l40.182,63.26L558.607-0.312L362.824,34.736z"/>
			<path fill="#83C09F" stroke="#83C09F" d="M558.607-0.312L403.005,97.996l82.074,49.586L558.607-0.312z"/>
			<path fill="#79B990" stroke="#79B990" d="M558.607-0.312L485.08,147.582l180.393,2.568L558.607-0.312z"/>
			<path fill="#80C19E" stroke="#80C19E" d="M558.607-0.312L665.473,150.15l-17.951-180.39L558.607-0.312z"/>
			<path fill="#79B992" stroke="#79B992" d="M647.522-30.238l17.951,180.389L763.776,4.812L647.522-30.238z"/>
			<path fill="#64A574" stroke="#64A574" d="M763.776,4.812L665.473,150.15l89.754,30.772L763.776,4.812z"/>
			<path fill="#60A16E" stroke="#60A16E" d="M763.776,4.812l-8.549,176.11l111.995-75.233L763.776,4.812z"/>
			<path fill="#66A675" stroke="#66A675" d="M763.776,4.812l103.446,100.877l46.166-62.414L763.776,4.812z"/>
			<path fill="#55945A" stroke="#55945A" d="M913.388,43.275l-46.166,62.414l187.231,0.854L913.388,43.275z"/>
			<path fill="#59965D" stroke="#59965D" d="M913.388,43.275l141.065,63.27l7.694-118.83L913.388,43.275z"/>
			<path fill="#569157" stroke="#569157" d="M1062.148-12.285l-7.694,118.83l89.771-88.048L1062.148-12.285z"/>
			<path fill="#4C8446" stroke="#4C8446" d="M1144.226,18.497l-89.771,88.048l70.108,21.373L1144.226,18.497z"/>
			<path fill="#43793D" stroke="#43793D" d="M1144.226,18.497l-19.664,109.421l165,48.734L1144.226,18.497z"/>
			<path fill="#4D804F" stroke="#4D804F" d="M1144.226,18.497l145.336,158.155l-17.099-217.149L1144.226,18.497z"/>
			<path fill="#37672F" stroke="#37672F" d="M1272.463-40.498l17.099,217.15l36.766,128.234L1272.463-40.498z"/>
			<path fill="#8FB789" stroke="#8FB789" d="M-53.533,174.939l3.422,75.236l123.11,21.374L-53.533,174.939z"/>
			<path fill="#8EBC93" stroke="#8EBC93" d="M-53.533,174.939l126.532,96.609l50.44-129.094L-53.533,174.939z"/>
			<path fill="#83B284" stroke="#83B284" d="M123.44,142.456L72.999,271.55l144.486-0.854L123.44,142.456z"/>
			<path fill="#8ABB96" stroke="#8ABB96" d="M123.44,142.456l94.046,128.238l36.762-170.134L123.44,142.456z"/>
			<path fill="#79AD80" stroke="#79AD80" d="M254.247,100.561l-36.762,170.134l171.843,25.647L254.247,100.561z"/>
			<path fill="#7EB690" stroke="#7EB690" d="M254.247,100.561l135.081,195.781l13.678-198.346L254.247,100.561z"/>
			<path fill="#74AE82" stroke="#74AE82" d="M403.006,97.996l-13.678,198.346l95.752-148.76L403.006,97.996z"/>
			<path fill="#639C69" stroke="#639C69" d="M485.08,147.582l-95.752,148.76l147.903,11.114L485.08,147.582z"/>
			<path fill="#5F9961" stroke="#5F9961" d="M485.08,147.582l52.151,159.874l48.733-40.181L485.08,147.582z"/>
			<path fill="#62A270" stroke="#62A270" d="M485.08,147.582l100.886,119.692l79.507-117.124L485.08,147.582z"/>
			<path fill="#559153" stroke="#559153" d="M665.473,150.15l-79.507,117.124l170.116,15.393L665.473,150.15z"/>
			<path fill="#539154" stroke="#539154" d="M665.473,150.15l90.609,132.517l-0.854-101.744L665.473,150.15z"/>
			<path fill="#477F3C" stroke="#477F3C" d="M755.228,180.923l0.854,101.744l144.481,11.969L755.228,180.923z"/>
			<path fill="#4C8746" stroke="#4C8746" d="M755.228,180.923l145.336,113.713l-33.342-188.946L755.228,180.923z"/>
			<path fill="#417E35" stroke="#417E35" d="M867.222,105.689l33.342,188.946l89.767-60.704L867.222,105.689z"/>
			<path fill="#488441" stroke="#488441" d="M867.222,105.689L990.33,233.934l64.123-127.389L867.222,105.689z"/>
			<path fill="#3B7328" stroke="#3B7328" d="M1054.453,106.545L990.33,233.934l137.65,13.678L1054.453,106.545z"/>
			<path fill="#3D7530" stroke="#3D7530" d="M1054.453,106.545l73.527,141.065l-3.419-119.692L1054.453,106.545z"/>
			<path fill="#376A26" stroke="#376A26" d="M1124.562,127.918l3.419,119.692l161.581-70.958L1124.562,127.918z"/>
			<path fill="#2B571A" stroke="#2B571A" d="M1289.562,176.652l-161.581,70.958l198.347,57.276L1289.562,176.652z"/>
			<path fill="#88A783" stroke="#88A783" d="M-50.111,250.176L8.024,379.274L73.001,271.55L-50.111,250.176z"/>
			<path fill="#809E80" stroke="#809E80" d="M72.999,271.549L8.023,379.273l134.229-30.777L72.999,271.549z"/>
			<path fill="#7EA27E" stroke="#7EA27E" d="M72.999,271.549l69.252,76.947l75.234-77.802L72.999,271.549z"/>
			<path fill="#749579" stroke="#749579" d="M217.486,270.694l-75.234,77.802l143.629,79.508L217.486,270.694z"/>
			<path fill="#6C9075" stroke="#6C9075" d="M217.486,270.694l68.395,157.31l98.319-75.236L217.486,270.694z"/>
			<path fill="#6D9875" stroke="#6D9875" d="M217.486,270.694l166.714,82.073l5.129-56.426L217.486,270.694z"/>
			<path fill="#61906A" stroke="#61906A" d="M389.328,296.342l-5.129,56.426l153.032-45.312L389.328,296.342z"/>
			<path fill="#5B8466" stroke="#5B8466" d="M537.232,307.456l-153.032,45.312l96.605,77.802L537.232,307.456z"/>
			<path fill="#53805C" stroke="#53805C" d="M537.232,307.456l-56.427,123.113l151.329-89.768L537.232,307.456z"/>
			<path fill="#55895A" stroke="#55895A" d="M537.232,307.456l94.901,33.346l-46.168-73.526L537.232,307.456z"/>
			<path fill="#4F8451" stroke="#4F8451" d="M585.966,267.274l46.168,73.526l123.948-58.134L585.966,267.274z"/>
			<path fill="#457845" stroke="#457845" d="M756.082,282.667l-123.948,58.135l159,11.966L756.082,282.667z"/>
			<path fill="#3F7238" stroke="#3F7238" d="M756.082,282.667l35.053,70.101l109.43-58.131L756.082,282.667z"/>
			<path fill="#36622D" stroke="#36622D" d="M900.564,294.636l-109.43,58.13l129.948,87.202L900.564,294.636z"/>
			<path fill="#2F5C25" stroke="#2F5C25" d="M900.564,294.636l20.519,145.332l70.107-86.346L900.564,294.636z"/>
			<path fill="#366825" stroke="#366825" d="M900.564,294.636l90.626,58.986l-0.859-119.688L900.564,294.636z"/>
			<path fill="#32641E" stroke="#32641E" d="M990.33,233.934l0.859,119.688l136.792-106.011L990.33,233.934z"/>
			<path fill="#2A5519" stroke="#2A5519" d="M1127.981,247.61L991.19,353.622l110.29,30.78L1127.981,247.61z"/>
			<path fill="#244A15" stroke="#244A15" d="M1127.981,247.61l-26.502,136.792l153.029,14.531L1127.981,247.61z"/>
			<path fill="#234915" stroke="#234915" d="M1127.981,247.61l126.528,151.323l71.818-94.047L1127.981,247.61z"/>
			<path fill="#77917C" stroke="#77917C" d="M8.023,379.273l277.855,48.729l-143.629-79.508L8.023,379.273z"/>
			<path fill="#61826D" stroke="#61826D" d="M285.88,428.004l194.926,2.564L384.2,352.767L285.88,428.004z"/>
			<path fill="#3D6741" stroke="#3D6741" d="M480.806,430.568l440.276,9.399l-129.948-87.2L480.806,430.568z"/>
			<path fill="#4A7852" stroke="#4A7852" d="M480.806,430.568l310.328-77.801l-159-11.966L480.806,430.568z"/>
			<path fill="#274E1A" stroke="#274E1A" d="M921.082,439.968l180.397-55.565l-110.29-30.78L921.082,439.968z"/>
		</g>
	</g>
</g>
</svg>
