<?xml version="1.0" encoding="utf-8"?>
<!-- Generator: Adobe Illustrator 16.0.0, SVG Export Plug-In . SVG Version: 6.00 Build 0)  -->
<!DOCTYPE svg PUBLIC "-//W3C//DTD SVG 1.1//EN" "http://www.w3.org/Graphics/SVG/1.1/DTD/svg11.dtd">
<svg version="1.1" id="Layer_1" xmlns="http://www.w3.org/2000/svg" xmlns:xlink="http://www.w3.org/1999/xlink" x="0px" y="0px"
	 width="1280px" height="800px" viewBox="0 0 1280 800" enable-background="new 0 0 1280 800" xml:space="preserve">
<g>
	<path fill="#FCF0E9" stroke="#FCF0E9" d="M-146.528-20.405L-17.724,95.331L58.81-14.807L-146.528-20.405z"/>
	<path fill="#F8DFD2" stroke="#F8DFD2" d="M58.81-14.807L-17.724,95.331l191.337,52.267L58.81-14.807z"/>
	<path fill="#F8E0D6" stroke="#F8E0D6" d="M58.81-14.807l114.804,162.404L189.48-44.671L58.81-14.807z"/>
	<path fill="#F6D8CA" stroke="#F6D8CA" d="M189.48-44.671l-15.867,192.269L296.816,12.262L189.48-44.671z"/>
	<path fill="#F5CEC1" stroke="#F5CEC1" d="M189.48-44.671l107.335,56.933l157.735-83.068L189.48-44.671z"/>
	<path fill="#F3CBBB" stroke="#F3CBBB" d="M296.816,12.262L173.614,147.597l185.735-84.002L296.816,12.262z"/>
	<path fill="#F1C8BA" stroke="#F1C8BA" d="M296.816,12.262l62.533,51.333l95.202-134.402L296.816,12.262z"/>
	<path fill="#EFC1B5" stroke="#EFC1B5" d="M454.551-70.807L359.349,63.595L484.42,88.797L454.551-70.807z"/>
	<path fill="#EAB5AB" stroke="#EAB5AB" d="M454.551-70.807L484.42,88.797l159.597-78.402L454.551-70.807z"/>
	<path fill="#E6ADA4" stroke="#E6ADA4" d="M454.551-70.807l189.466,81.202l52.271-40.135L454.551-70.807z"/>
	<path fill="#E8AA9C" stroke="#E8AA9C" d="M644.017,10.395L484.42,88.797l117.604,36.4L644.017,10.395z"/>
	<path fill="#E39F92" stroke="#E39F92" d="M644.017,10.395l-41.993,114.802l160.533-23.333L644.017,10.395z"/>
	<path fill="#E2A29A" stroke="#E2A29A" d="M644.017,10.395l118.54,91.469L696.288-29.74L644.017,10.395z"/>
	<path fill="#DF9A94" stroke="#DF9A94" d="M696.288-29.74l66.269,131.604l98.002-89.602L696.288-29.74z"/>
	<path fill="#DB908D" stroke="#DB908D" d="M696.288-29.74l164.271,42.002l105.469-65.335L696.288-29.74z"/>
	<path fill="#DC8D84" stroke="#DC8D84" d="M860.559,12.262l-98.002,89.602l68.136,22.4L860.559,12.262z"/>
	<path fill="#D6807B" stroke="#D6807B" d="M860.559,12.262l-29.866,112.002l234.269-18.667L860.559,12.262z"/>
	<path fill="#D58683" stroke="#D58683" d="M860.559,12.262l204.402,93.335L966.027-53.074L860.559,12.262z"/>
	<path fill="#D28583" stroke="#D28583" d="M966.027-53.074l98.934,158.671l35.471-110.135L966.027-53.074z"/>
	<path fill="#CF827D" stroke="#CF827D" d="M1100.432-4.538l-35.471,110.135l123.204-42.936L1100.432-4.538z"/>
	<path fill="#CE8483" stroke="#CE8483" d="M1100.432-4.538l87.733,67.2l74.671-131.602L1100.432-4.538z"/>
	<path fill="#CC8380" stroke="#CC8380" d="M1262.836-68.94l-74.671,131.602l52.271,75.602L1262.836-68.94z"/>
	<path fill="#C97B73" stroke="#C97B73" d="M1262.836-68.94l-22.4,207.204l96.136,91.469L1262.836-68.94z"/>
	<path fill="#F6D5C3" stroke="#F6D5C3" d="M-17.724,95.331l-129.737,170.804l162.404-50.402L-17.724,95.331z"/>
	<path fill="#F5D2C0" stroke="#F5D2C0" d="M-17.724,95.331l32.667,120.402l158.671-68.135L-17.724,95.331z"/>
	<path fill="#F2C0A9" stroke="#F2C0A9" d="M173.614,147.597L14.943,215.732l155.871,84.936L173.614,147.597z"/>
	<path fill="#F1B69D" stroke="#F1B69D" d="M173.614,147.597l-2.8,153.071l151.202-84.936L173.614,147.597z"/>
	<path fill="#F2C0A9" stroke="#F2C0A9" d="M173.614,147.597l148.402,68.135l37.333-152.137L173.614,147.597z"/>
	<path fill="#EFB7A2" stroke="#EFB7A2" d="M359.349,63.595l-37.333,152.137L484.42,88.797L359.349,63.595z"/>
	<path fill="#ECA890" stroke="#ECA890" d="M484.42,88.797L322.016,215.732l119.469,57.869L484.42,88.797z"/>
	<path fill="#E8A28E" stroke="#E8A28E" d="M484.42,88.797l-42.936,184.804l160.54-148.404L484.42,88.797z"/>
	<path fill="#E4917A" stroke="#E4917A" d="M602.024,125.197l-160.54,148.404l178.271,26.133L602.024,125.197z"/>
	<path fill="#E18975" stroke="#E18975" d="M602.024,125.197l17.731,174.537l97.998-66.269L602.024,125.197z"/>
	<path fill="#E08F80" stroke="#E08F80" d="M602.024,125.197l115.729,108.269l44.804-131.602L602.024,125.197z"/>
	<path fill="#DB8477" stroke="#DB8477" d="M762.557,101.864l-44.804,131.602l112.939-109.202L762.557,101.864z"/>
	<path fill="#DA7A69" stroke="#DA7A69" d="M830.692,124.264L717.753,233.466l161.473,10.267L830.692,124.264z"/>
	<path fill="#D47468" stroke="#D47468" d="M830.692,124.264l48.533,119.469l185.735-138.135L830.692,124.264z"/>
	<path fill="#D26959" stroke="#D26959" d="M1064.961,105.597L879.226,243.732l154.938,30.8L1064.961,105.597z"/>
	<path fill="#CE6A5B" stroke="#CE6A5B" d="M1064.961,105.597l-30.798,168.935l146.54-57.866L1064.961,105.597z"/>
	<path fill="#CD776C" stroke="#CD776C" d="M1064.961,105.597l115.742,111.069l7.462-154.004L1064.961,105.597z"/>
	<path fill="#CC7569" stroke="#CC7569" d="M1188.165,62.662l-7.462,154.004l59.732-78.402L1188.165,62.662z"/>
	<path fill="#C96B5C" stroke="#C96B5C" d="M1240.436,138.264l-59.732,78.402l155.868,13.066L1240.436,138.264z"/>
	<path fill="#F3C5B1" stroke="#F3C5B1" d="M-147.461,266.134l40.136,103.603L14.943,215.732L-147.461,266.134z"/>
	<path fill="#F1B6A2" stroke="#F1B6A2" d="M14.943,215.732l-122.268,154.004L7.477,408.003L14.943,215.732z"/>
	<path fill="#F1B39C" stroke="#F1B39C" d="M14.943,215.732L7.477,408.003l163.337-107.335L14.943,215.732z"/>
	<path fill="#EC9A87" stroke="#EC9A87" d="M170.813,300.668L7.477,408.003l166.137,29.862L170.813,300.668z"/>
	<path fill="#EC9580" stroke="#EC9580" d="M170.813,300.668l2.8,137.197l132.533-81.197L170.813,300.668z"/>
	<path fill="#EDA388" stroke="#EDA388" d="M170.813,300.668l135.333,56l15.869-140.936L170.813,300.668z"/>
	<path fill="#ED9E80" stroke="#ED9E80" d="M322.016,215.732l-15.869,140.936l135.337-83.067L322.016,215.732z"/>
	<path fill="#E98E74" stroke="#E98E74" d="M441.484,273.601l-135.337,83.067l165.207-17.734L441.484,273.601z"/>
	<path fill="#E5866F" stroke="#E5866F" d="M441.484,273.601l29.869,65.333l148.401-39.2L441.484,273.601z"/>
	<path fill="#E17962" stroke="#E17962" d="M619.755,299.734l-148.401,39.2l136.269,35.469L619.755,299.734z"/>
	<path fill="#DC6B59" stroke="#DC6B59" d="M619.755,299.734l-12.133,74.669l167.07-20.533L619.755,299.734z"/>
	<path fill="#DB735D" stroke="#DB735D" d="M619.755,299.734l154.938,54.136l-56.939-120.404L619.755,299.734z"/>
	<path fill="#D96D5A" stroke="#D96D5A" d="M717.753,233.466l56.939,120.404l104.533-110.138L717.753,233.466z"/>
	<path fill="#D65F4E" stroke="#D65F4E" d="M879.226,243.732L774.692,353.87l72.8,19.6L879.226,243.732z"/>
	<path fill="#D35747" stroke="#D35747" d="M879.226,243.732L847.492,373.47l170.807-37.335L879.226,243.732z"/>
	<path fill="#D15C49" stroke="#D15C49" d="M879.226,243.732l139.073,92.402l15.864-61.603L879.226,243.732z"/>
	<path fill="#CE5241" stroke="#CE5241" d="M1034.163,274.532l-15.864,61.603l170.802,42.001L1034.163,274.532z"/>
	<path fill="#CB5A48" stroke="#CB5A48" d="M1034.163,274.532l154.938,103.604l-8.397-161.47L1034.163,274.532z"/>
	<path fill="#C85543" stroke="#C85543" d="M1180.703,216.666l8.397,161.47l130.666-28.933L1180.703,216.666z"/>
	<path fill="#C75F4C" stroke="#C75F4C" d="M1180.703,216.666l139.063,132.538l16.805-119.471L1180.703,216.666z"/>
	<path fill="#EEA094" stroke="#EEA094" d="M-107.325,369.737l-41.069,141.864L7.477,408.003L-107.325,369.737z"/>
	<path fill="#EC9186" stroke="#EC9186" d="M7.477,408.003l-155.871,103.598L7.477,523.731V408.003z"/>
	<path fill="#EC8D80" stroke="#EC8D80" d="M7.477,408.003v115.729l166.137-85.866L7.477,408.003z"/>
	<path fill="#E97E70" stroke="#E97E70" d="M173.614,437.865L7.477,523.731l183.871,6.536L173.614,437.865z"/>
	<path fill="#E98270" stroke="#E98270" d="M173.614,437.865l17.733,92.402l114.8-173.6L173.614,437.865z"/>
	<path fill="#E7715E" stroke="#E7715E" d="M306.147,356.668l-114.8,173.6l179.202,52.266L306.147,356.668z"/>
	<path fill="#E76C58" stroke="#E76C58" d="M306.147,356.668l64.402,225.865l122.271-85.866L306.147,356.668z"/>
	<path fill="#E67A62" stroke="#E67A62" d="M306.147,356.668L492.82,496.667l-21.466-157.733L306.147,356.668z"/>
	<path fill="#E16E59" stroke="#E16E59" d="M471.354,338.934l21.466,157.733l114.802-122.264L471.354,338.934z"/>
	<path fill="#DE5B4B" stroke="#DE5B4B" d="M607.622,374.403L492.82,496.667l132.535,14.934L607.622,374.403z"/>
	<path fill="#DA5545" stroke="#DA5545" d="M607.622,374.403l17.733,137.197l76.533-22.4L607.622,374.403z"/>
	<path fill="#DA5A4A" stroke="#DA5A4A" d="M607.622,374.403L701.888,489.2l72.805-135.33L607.622,374.403z"/>
	<path fill="#D65344" stroke="#D65344" d="M774.692,353.87L701.888,489.2l145.604-115.73L774.692,353.87z"/>
	<path fill="#D44739" stroke="#D44739" d="M847.492,373.47L701.888,489.2l170.802,5.601L847.492,373.47z"/>
	<path fill="#D14839" stroke="#D14839" d="M847.492,373.47l25.197,121.331l145.609-158.666L847.492,373.47z"/>
	<path fill="#D03E2F" stroke="#D03E2F" d="M1018.299,336.135L872.689,494.801l159.607,40.131L1018.299,336.135z"/>
	<path fill="#CC4233" stroke="#CC4233" d="M1018.299,336.135l13.998,198.797l156.804-156.795L1018.299,336.135z"/>
	<path fill="#C83629" stroke="#C83629" d="M1189.101,378.136l-156.804,156.795l175.471,22.404L1189.101,378.136z"/>
	<path fill="#C5382B" stroke="#C5382B" d="M1189.101,378.136l18.667,179.2l59.732-81.202L1189.101,378.136z"/>
	<path fill="#C54436" stroke="#C54436" d="M1189.101,378.136l78.399,97.998l52.267-126.93L1189.101,378.136z"/>
	<path fill="#C22F22" stroke="#C22F22" d="M1319.767,349.204l-52.267,126.93l44.8,378.006L1319.767,349.204z"/>
	<path fill="#EA7E77" stroke="#EA7E77" d="M-148.395,511.601l86.802,159.606L7.477,523.731L-148.395,511.601z"/>
	<path fill="#E8776B" stroke="#E8776B" d="M7.477,523.731l-69.069,147.476l139.071-19.606L7.477,523.731z"/>
	<path fill="#E77064" stroke="#E77064" d="M7.477,523.731l70.002,127.869l113.869-121.333L7.477,523.731z"/>
	<path fill="#E76C5E" stroke="#E76C5E" d="M191.347,530.268L77.479,651.601l63.466-5.596L191.347,530.268z"/>
	<path fill="#E66354" stroke="#E66354" d="M191.347,530.268l-50.402,115.737l229.604-63.472L191.347,530.268z"/>
	<path fill="#E6604E" stroke="#E6604E" d="M370.549,582.533l-229.604,63.472l211.871,69.071L370.549,582.533z"/>
	<path fill="#E45844" stroke="#E45844" d="M370.549,582.533l-17.733,132.543l96.137-58.812L370.549,582.533z"/>
	<path fill="#E25342" stroke="#E25342" d="M370.549,582.533l78.404,73.731l43.867-159.598L370.549,582.533z"/>
	<path fill="#DF4F3E" stroke="#DF4F3E" d="M492.82,496.667l-43.867,159.598l176.402-144.664L492.82,496.667z"/>
	<path fill="#DF4938" stroke="#DF4938" d="M625.355,511.601L448.953,656.265l118.536,61.613L625.355,511.601z"/>
	<path fill="#DA4331" stroke="#DA4331" d="M625.355,511.601l-57.866,206.277l187.597-75.61L625.355,511.601z"/>
	<path fill="#D84333" stroke="#D84333" d="M625.355,511.601l129.731,130.667L701.888,489.2L625.355,511.601z"/>
	<path fill="#D53E2F" stroke="#D53E2F" d="M701.888,489.2l53.198,153.067l117.604-147.467L701.888,489.2z"/>
	<path fill="#D23627" stroke="#D23627" d="M872.689,494.801L755.086,642.268l169.875,59.737L872.689,494.801z"/>
	<path fill="#D03324" stroke="#D03324" d="M872.689,494.801l52.271,207.204l107.336-167.073L872.689,494.801z"/>
	<path fill="#CC3122" stroke="#CC3122" d="M1032.297,534.932L924.961,702.005l143.732-27.069L1032.297,534.932z"/>
	<path fill="#CB3122" stroke="#CB3122" d="M1032.297,534.932l36.396,140.004l49.474-10.264L1032.297,534.932z"/>
	<path fill="#C83121" stroke="#C83121" d="M1032.297,534.932l85.87,129.74l89.601-107.336L1032.297,534.932z"/>
	<path fill="#C73021" stroke="#C73021" d="M1207.768,557.336l-89.601,107.336l122.269,45.739L1207.768,557.336z"/>
	<path fill="#C63021" stroke="#C63021" d="M1207.768,557.336l32.668,153.075l27.064-234.277L1207.768,557.336z"/>
	<path fill="#C32F1F" stroke="#C32F1F" d="M1267.5,476.134l-27.064,234.277L1312.3,854.14L1267.5,476.134z"/>
	<path fill="#E97A6F" stroke="#E97A6F" d="M-61.592,671.207l2.8,123.2l94.269,12.13L-61.592,671.207z"/>
	<path fill="#E8756A" stroke="#E8756A" d="M-61.592,671.207l97.069,135.33l42.002-154.937L-61.592,671.207z"/>
	<path fill="#E76F63" stroke="#E76F63" d="M77.479,651.601L35.477,806.537l134.402,26.143L77.479,651.601z"/>
	<path fill="#E76C5D" stroke="#E76C5D" d="M77.479,651.601l92.4,181.079l-28.934-186.675L77.479,651.601z"/>
	<path fill="#E76555" stroke="#E76555" d="M140.945,646.005l28.934,186.675l182.938-117.604L140.945,646.005z"/>
	<path fill="#E6604E" stroke="#E6604E" d="M352.816,715.076L169.878,832.68l160.537-16.805L352.816,715.076z"/>
	<path fill="#E45845" stroke="#E45845" d="M352.816,715.076l-22.4,100.799l99.869-14.002L352.816,715.076z"/>
	<path fill="#E35543" stroke="#E35543" d="M352.816,715.076l77.468,86.797l18.669-145.608L352.816,715.076z"/>
	<path fill="#E04F3E" stroke="#E04F3E" d="M448.953,656.265l-18.669,145.608l137.205-83.995L448.953,656.265z"/>
	<path fill="#DF4B39" stroke="#DF4B39" d="M567.489,717.878l-137.205,83.995l159.604,6.535L567.489,717.878z"/>
	<path fill="#DB4333" stroke="#DB4333" d="M567.489,717.878l22.399,90.53l140-33.6L567.489,717.878z"/>
	<path fill="#D93E2F" stroke="#D93E2F" d="M567.489,717.878l162.399,56.931l25.198-132.541L567.489,717.878z"/>
	<path fill="#D43A29" stroke="#D43A29" d="M755.086,642.268l-25.198,132.541l195.073-72.804L755.086,642.268z"/>
	<path fill="#D23627" stroke="#D23627" d="M924.961,702.005l-195.073,72.804l180.136,7.467L924.961,702.005z"/>
	<path fill="#CE3222" stroke="#CE3222" d="M924.961,702.005l-14.938,80.271l154.938,31.738L924.961,702.005z"/>
	<path fill="#CC3122" stroke="#CC3122" d="M924.961,702.005l140,112.009l3.732-139.078L924.961,702.005z"/>
	<path fill="#CB3122" stroke="#CB3122" d="M1068.693,674.936l-3.732,139.078l53.206-149.342L1068.693,674.936z"/>
	<path fill="#CB3122" stroke="#CB3122" d="M1118.167,664.672l-53.206,149.342l73.735,29.857L1118.167,664.672z"/>
	<path fill="#C73021" stroke="#C73021" d="M1118.167,664.672l20.529,179.199l101.739-133.46L1118.167,664.672z"/>
	<path fill="#C63020" stroke="#C63020" d="M1240.436,710.411l-101.739,133.46L1312.3,854.14L1240.436,710.411z"/>
	<path fill="#E87366" stroke="#E87366" d="M-58.792,794.407l228.671,38.272L35.477,806.537L-58.792,794.407z"/>
	<path fill="#D23525" stroke="#D23525" d="M589.888,808.408l548.808,35.463l-228.673-61.596L589.888,808.408z"/>
	<path fill="#D53B2C" stroke="#D53B2C" d="M589.888,808.408l320.135-26.133l-180.136-7.467L589.888,808.408z"/>
	<path fill="#CB3122" stroke="#CB3122" d="M910.023,782.275l228.673,61.596l-73.735-29.857L910.023,782.275z"/>
</g>
</svg>
