<?xml version="1.0" encoding="utf-8"?>
<!-- Generator: Adobe Illustrator 16.0.0, SVG Export Plug-In . SVG Version: 6.00 Build 0)  -->
<!DOCTYPE svg PUBLIC "-//W3C//DTD SVG 1.1//EN" "http://www.w3.org/Graphics/SVG/1.1/DTD/svg11.dtd">
<svg version="1.1" xmlns="http://www.w3.org/2000/svg" xmlns:xlink="http://www.w3.org/1999/xlink" x="0px" y="0px" width="1280px"
	 height="600px" viewBox="0 0 1280 600" enable-background="new 0 0 1280 600" xml:space="preserve">
<g id="Layer_1" display="none">
	<g display="inline">
		<path fill="#F6D4C0" stroke="#F6D4C0" d="M-146.528-20.132l-1.867,532.005l0.934-245.466L-146.528-20.132z"/>
		<path fill="#FCEEE4" stroke="#FCEEE4" d="M-146.528-20.132l-0.933,286.539l6.533-188.537L-146.528-20.132z"/>
		<path fill="#FDF5ED" stroke="#FDF5ED" d="M-146.528-20.132l5.6,98.002l123.204,17.733L-146.528-20.132z"/>
		<path fill="#FCF0E9" stroke="#FCF0E9" d="M-146.528-20.132L-17.724,95.604L58.81-14.534L-146.528-20.132z"/>
		<path fill="#FBE9E0" stroke="#FBE9E0" d="M-146.528-20.132L58.81-14.534L189.48-44.398L-146.528-20.132z"/>
		<path fill="#F7DCD2" stroke="#F7DCD2" d="M-146.528-20.132L189.48-44.398l265.07-26.135L-146.528-20.132z"/>
		<path fill="#F8DFD2" stroke="#F8DFD2" d="M58.81-14.534L-17.724,95.604l191.337,52.267L58.81-14.534z"/>
		<path fill="#F8E0D6" stroke="#F8E0D6" d="M58.81-14.534L173.614,147.87L189.48-44.398L58.81-14.534z"/>
		<path fill="#F6D8CA" stroke="#F6D8CA" d="M189.48-44.398L173.614,147.87L296.816,12.535L189.48-44.398z"/>
		<path fill="#F5CEC1" stroke="#F5CEC1" d="M189.48-44.398l107.335,56.933l157.735-83.068L189.48-44.398z"/>
		<path fill="#F3CBBB" stroke="#F3CBBB" d="M296.816,12.535L173.614,147.87l185.735-84.002L296.816,12.535z"/>
		<path fill="#F1C8BA" stroke="#F1C8BA" d="M296.816,12.535l62.533,51.333l95.202-134.402L296.816,12.535z"/>
		<path fill="#EFC1B5" stroke="#EFC1B5" d="M454.551-70.534L359.349,63.868L484.42,89.07L454.551-70.534z"/>
		<path fill="#EAB5AB" stroke="#EAB5AB" d="M454.551-70.534L484.42,89.07l159.597-78.402L454.551-70.534z"/>
		<path fill="#E6ADA4" stroke="#E6ADA4" d="M454.551-70.534l189.466,81.202l52.271-40.135L454.551-70.534z"/>
		<path fill="#E2A29C" stroke="#E2A29C" d="M454.551-70.534l241.737,41.066l269.739-23.333L454.551-70.534z"/>
		<path fill="#D88A88" stroke="#D88A88" d="M454.551-70.534l511.477,17.733l296.809-15.867L454.551-70.534z"/>
		<path fill="#E8AA9C" stroke="#E8AA9C" d="M644.017,10.668L484.42,89.07l117.604,36.4L644.017,10.668z"/>
		<path fill="#E39F92" stroke="#E39F92" d="M644.017,10.668L602.024,125.47l160.533-23.333L644.017,10.668z"/>
		<path fill="#E2A29A" stroke="#E2A29A" d="M644.017,10.668l118.54,91.469L696.288-29.467L644.017,10.668z"/>
		<path fill="#DF9A94" stroke="#DF9A94" d="M696.288-29.467l66.269,131.604l98.002-89.602L696.288-29.467z"/>
		<path fill="#DB908D" stroke="#DB908D" d="M696.288-29.467l164.271,42.002l105.469-65.335L696.288-29.467z"/>
		<path fill="#DC8D84" stroke="#DC8D84" d="M860.559,12.535l-98.002,89.602l68.136,22.4L860.559,12.535z"/>
		<path fill="#D6807B" stroke="#D6807B" d="M860.559,12.535l-29.866,112.002l234.269-18.667L860.559,12.535z"/>
		<path fill="#D58683" stroke="#D58683" d="M860.559,12.535l204.402,93.335L966.027-52.801L860.559,12.535z"/>
		<path fill="#D28583" stroke="#D28583" d="M966.027-52.801l98.934,158.671l35.471-110.135L966.027-52.801z"/>
		<path fill="#D08583" stroke="#D08583" d="M966.027-52.801l134.404,48.536l162.404-64.402L966.027-52.801z"/>
		<path fill="#CF827D" stroke="#CF827D" d="M1100.432-4.265l-35.471,110.135l123.204-42.936L1100.432-4.265z"/>
		<path fill="#CE8483" stroke="#CE8483" d="M1100.432-4.265l87.733,67.2l74.671-131.602L1100.432-4.265z"/>
		<path fill="#CC8380" stroke="#CC8380" d="M1262.836-68.667l-74.671,131.602l52.271,75.602L1262.836-68.667z"/>
		<path fill="#C97B73" stroke="#C97B73" d="M1262.836-68.667l-22.4,207.204l96.136,91.469L1262.836-68.667z"/>
		<path fill="#FAE3D5" stroke="#FAE3D5" d="M-140.928,77.87l-6.533,188.537L-17.724,95.604L-140.928,77.87z"/>
		<path fill="#F6D5C3" stroke="#F6D5C3" d="M-17.724,95.604l-129.737,170.804l162.404-50.402L-17.724,95.604z"/>
		<path fill="#F5D2C0" stroke="#F5D2C0" d="M-17.724,95.604l32.667,120.402l158.671-68.135L-17.724,95.604z"/>
		<path fill="#F2C0A9" stroke="#F2C0A9" d="M173.614,147.87L14.943,216.005l155.871,84.936L173.614,147.87z"/>
		<path fill="#F1B69D" stroke="#F1B69D" d="M173.614,147.87l-2.8,153.071l151.202-84.936L173.614,147.87z"/>
		<path fill="#F2C0A9" stroke="#F2C0A9" d="M173.614,147.87l148.402,68.135l37.333-152.137L173.614,147.87z"/>
		<path fill="#EFB7A2" stroke="#EFB7A2" d="M359.349,63.868l-37.333,152.137L484.42,89.07L359.349,63.868z"/>
		<path fill="#ECA890" stroke="#ECA890" d="M484.42,89.07L322.016,216.005l119.469,57.869L484.42,89.07z"/>
		<path fill="#E8A28E" stroke="#E8A28E" d="M484.42,89.07l-42.936,184.804l160.54-148.404L484.42,89.07z"/>
		<path fill="#E4917A" stroke="#E4917A" d="M602.024,125.47l-160.54,148.404l178.271,26.133L602.024,125.47z"/>
		<path fill="#E18975" stroke="#E18975" d="M602.024,125.47l17.731,174.537l97.998-66.269L602.024,125.47z"/>
		<path fill="#E08F80" stroke="#E08F80" d="M602.024,125.47l115.729,108.269l44.804-131.602L602.024,125.47z"/>
		<path fill="#DB8477" stroke="#DB8477" d="M762.557,102.137l-44.804,131.602l112.939-109.202L762.557,102.137z"/>
		<path fill="#DA7A69" stroke="#DA7A69" d="M830.692,124.537L717.753,233.739l161.473,10.267L830.692,124.537z"/>
		<path fill="#D47468" stroke="#D47468" d="M830.692,124.537l48.533,119.469l185.735-138.135L830.692,124.537z"/>
		<path fill="#D26959" stroke="#D26959" d="M1064.961,105.87L879.226,244.005l154.938,30.8L1064.961,105.87z"/>
		<path fill="#CE6A5B" stroke="#CE6A5B" d="M1064.961,105.87l-30.798,168.935l146.54-57.866L1064.961,105.87z"/>
		<path fill="#CD776C" stroke="#CD776C" d="M1064.961,105.87l115.742,111.069l7.462-154.004L1064.961,105.87z"/>
		<path fill="#CC7569" stroke="#CC7569" d="M1188.165,62.935l-7.462,154.004l59.732-78.402L1188.165,62.935z"/>
		<path fill="#C96B5C" stroke="#C96B5C" d="M1240.436,138.537l-59.732,78.402l155.868,13.066L1240.436,138.537z"/>
		<path fill="#F0B2A3" stroke="#F0B2A3" d="M-147.461,266.407l-0.934,245.466l41.069-141.864L-147.461,266.407z"/>
		<path fill="#F3C5B1" stroke="#F3C5B1" d="M-147.461,266.407l40.136,103.603L14.943,216.005L-147.461,266.407z"/>
		<path fill="#F1B6A2" stroke="#F1B6A2" d="M14.943,216.005L-107.325,370.01L7.477,408.276L14.943,216.005z"/>
		<path fill="#F1B39C" stroke="#F1B39C" d="M14.943,216.005L7.477,408.276l163.337-107.335L14.943,216.005z"/>
		<path fill="#EC9A87" stroke="#EC9A87" d="M170.813,300.941L7.477,408.276l166.137,29.862L170.813,300.941z"/>
		<path fill="#EC9580" stroke="#EC9580" d="M170.813,300.941l2.8,137.197l132.533-81.197L170.813,300.941z"/>
		<path fill="#EDA388" stroke="#EDA388" d="M170.813,300.941l135.333,56l15.869-140.936L170.813,300.941z"/>
		<path fill="#ED9E80" stroke="#ED9E80" d="M322.016,216.005l-15.869,140.936l135.337-83.067L322.016,216.005z"/>
		<path fill="#E98E74" stroke="#E98E74" d="M441.484,273.874l-135.337,83.067l165.207-17.734L441.484,273.874z"/>
		<path fill="#E5866F" stroke="#E5866F" d="M441.484,273.874l29.869,65.333l148.401-39.2L441.484,273.874z"/>
		<path fill="#E17962" stroke="#E17962" d="M619.755,300.007l-148.401,39.2l136.269,35.469L619.755,300.007z"/>
		<path fill="#DC6B59" stroke="#DC6B59" d="M619.755,300.007l-12.133,74.669l167.07-20.533L619.755,300.007z"/>
		<path fill="#DB735D" stroke="#DB735D" d="M619.755,300.007l154.938,54.136l-56.939-120.404L619.755,300.007z"/>
		<path fill="#D96D5A" stroke="#D96D5A" d="M717.753,233.739l56.939,120.404l104.533-110.138L717.753,233.739z"/>
		<path fill="#D65F4E" stroke="#D65F4E" d="M879.226,244.005L774.692,354.143l72.8,19.6L879.226,244.005z"/>
		<path fill="#D35747" stroke="#D35747" d="M879.226,244.005l-31.733,129.737l170.807-37.335L879.226,244.005z"/>
		<path fill="#D15C49" stroke="#D15C49" d="M879.226,244.005l139.073,92.402l15.864-61.603L879.226,244.005z"/>
		<path fill="#CE5241" stroke="#CE5241" d="M1034.163,274.805l-15.864,61.603l170.802,42.001L1034.163,274.805z"/>
		<path fill="#CB5A48" stroke="#CB5A48" d="M1034.163,274.805l154.938,103.604l-8.397-161.47L1034.163,274.805z"/>
		<path fill="#C85543" stroke="#C85543" d="M1180.703,216.939l8.397,161.47l130.666-28.933L1180.703,216.939z"/>
		<path fill="#C75F4C" stroke="#C75F4C" d="M1180.703,216.939l139.063,132.538l16.805-119.471L1180.703,216.939z"/>
		<path fill="#C2382A" stroke="#C2382A" d="M1336.571,230.005l-16.805,119.471l-7.467,504.936L1336.571,230.005z"/>
		<path fill="#EEA094" stroke="#EEA094" d="M-107.325,370.01l-41.069,141.864L7.477,408.276L-107.325,370.01z"/>
		<path fill="#EC9186" stroke="#EC9186" d="M7.477,408.276l-155.871,103.598L7.477,524.004V408.276z"/>
		<path fill="#EC8D80" stroke="#EC8D80" d="M7.477,408.276v115.729l166.137-85.866L7.477,408.276z"/>
		<path fill="#E97E70" stroke="#E97E70" d="M173.614,438.138L7.477,524.004l183.871,6.536L173.614,438.138z"/>
		<path fill="#E98270" stroke="#E98270" d="M173.614,438.138l17.733,92.402l114.8-173.6L173.614,438.138z"/>
		<path fill="#E7715E" stroke="#E7715E" d="M306.147,356.941l-114.8,173.6l179.202,52.266L306.147,356.941z"/>
		<path fill="#E76C58" stroke="#E76C58" d="M306.147,356.941l64.402,225.865L492.82,496.94L306.147,356.941z"/>
		<path fill="#E67A62" stroke="#E67A62" d="M306.147,356.941L492.82,496.94l-21.466-157.733L306.147,356.941z"/>
		<path fill="#E16E59" stroke="#E16E59" d="M471.354,339.207L492.82,496.94l114.802-122.264L471.354,339.207z"/>
		<path fill="#DE5B4B" stroke="#DE5B4B" d="M607.622,374.676L492.82,496.94l132.535,14.934L607.622,374.676z"/>
		<path fill="#DA5545" stroke="#DA5545" d="M607.622,374.676l17.733,137.197l76.533-22.4L607.622,374.676z"/>
		<path fill="#DA5A4A" stroke="#DA5A4A" d="M607.622,374.676l94.266,114.797l72.805-135.33L607.622,374.676z"/>
		<path fill="#D65344" stroke="#D65344" d="M774.692,354.143l-72.805,135.33l145.604-115.73L774.692,354.143z"/>
		<path fill="#D44739" stroke="#D44739" d="M847.492,373.743l-145.604,115.73l170.802,5.601L847.492,373.743z"/>
		<path fill="#D14839" stroke="#D14839" d="M847.492,373.743l25.197,121.331l145.609-158.666L847.492,373.743z"/>
		<path fill="#D03E2F" stroke="#D03E2F" d="M1018.299,336.408L872.689,495.074l159.607,40.131L1018.299,336.408z"/>
		<path fill="#CC4233" stroke="#CC4233" d="M1018.299,336.408l13.998,198.797l156.804-156.795L1018.299,336.408z"/>
		<path fill="#C83629" stroke="#C83629" d="M1189.101,378.409l-156.804,156.795l175.471,22.404L1189.101,378.409z"/>
		<path fill="#C5382B" stroke="#C5382B" d="M1189.101,378.409l18.667,179.2l59.732-81.202L1189.101,378.409z"/>
		<path fill="#C54436" stroke="#C54436" d="M1189.101,378.409l78.399,97.998l52.267-126.93L1189.101,378.409z"/>
		<path fill="#C22F22" stroke="#C22F22" d="M1319.767,349.477l-52.267,126.93l44.8,378.006L1319.767,349.477z"/>
		<path fill="#EA7F76" stroke="#EA7F76" d="M-148.395,511.874l89.602,282.807l-2.8-123.2L-148.395,511.874z"/>
		<path fill="#EA7E77" stroke="#EA7E77" d="M-148.395,511.874l86.802,159.606L7.477,524.004L-148.395,511.874z"/>
		<path fill="#E8776B" stroke="#E8776B" d="M7.477,524.004L-61.592,671.48l139.071-19.606L7.477,524.004z"/>
		<path fill="#E77064" stroke="#E77064" d="M7.477,524.004l70.002,127.869l113.869-121.333L7.477,524.004z"/>
		<path fill="#E76C5E" stroke="#E76C5E" d="M191.347,530.541L77.479,651.874l63.466-5.596L191.347,530.541z"/>
		<path fill="#E66354" stroke="#E66354" d="M191.347,530.541l-50.402,115.737l229.604-63.472L191.347,530.541z"/>
		<path fill="#E6604E" stroke="#E6604E" d="M370.549,582.806l-229.604,63.472l211.871,69.071L370.549,582.806z"/>
		<path fill="#E45844" stroke="#E45844" d="M370.549,582.806l-17.733,132.543l96.137-58.812L370.549,582.806z"/>
		<path fill="#E25342" stroke="#E25342" d="M370.549,582.806l78.404,73.731L492.82,496.94L370.549,582.806z"/>
		<path fill="#DF4F3E" stroke="#DF4F3E" d="M492.82,496.94l-43.867,159.598l176.402-144.664L492.82,496.94z"/>
		<path fill="#DF4938" stroke="#DF4938" d="M625.355,511.874L448.953,656.538l118.536,61.613L625.355,511.874z"/>
		<path fill="#DA4331" stroke="#DA4331" d="M625.355,511.874l-57.866,206.277l187.597-75.61L625.355,511.874z"/>
		<path fill="#D84333" stroke="#D84333" d="M625.355,511.874l129.731,130.667l-53.198-153.067L625.355,511.874z"/>
		<path fill="#D53E2F" stroke="#D53E2F" d="M701.888,489.473l53.198,153.067l117.604-147.467L701.888,489.473z"/>
		<path fill="#D23627" stroke="#D23627" d="M872.689,495.074L755.086,642.541l169.875,59.737L872.689,495.074z"/>
		<path fill="#D03324" stroke="#D03324" d="M872.689,495.074l52.271,207.204l107.336-167.073L872.689,495.074z"/>
		<path fill="#CC3122" stroke="#CC3122" d="M1032.297,535.205L924.961,702.278l143.732-27.069L1032.297,535.205z"/>
		<path fill="#CB3122" stroke="#CB3122" d="M1032.297,535.205l36.396,140.004l49.474-10.264L1032.297,535.205z"/>
		<path fill="#C83121" stroke="#C83121" d="M1032.297,535.205l85.87,129.74l89.601-107.336L1032.297,535.205z"/>
		<path fill="#C73021" stroke="#C73021" d="M1207.768,557.609l-89.601,107.336l122.269,45.739L1207.768,557.609z"/>
		<path fill="#C63021" stroke="#C63021" d="M1207.768,557.609l32.668,153.075l27.064-234.277L1207.768,557.609z"/>
		<path fill="#C32F1F" stroke="#C32F1F" d="M1267.5,476.407l-27.064,234.277l71.864,143.729L1267.5,476.407z"/>
		<path fill="#E97A6F" stroke="#E97A6F" d="M-61.592,671.48l2.8,123.2l94.269,12.13L-61.592,671.48z"/>
		<path fill="#E8756A" stroke="#E8756A" d="M-61.592,671.48l97.069,135.33l42.002-154.937L-61.592,671.48z"/>
		<path fill="#E76F63" stroke="#E76F63" d="M77.479,651.874L35.477,806.81l134.402,26.143L77.479,651.874z"/>
		<path fill="#E76C5D" stroke="#E76C5D" d="M77.479,651.874l92.4,181.079l-28.934-186.675L77.479,651.874z"/>
		<path fill="#E76555" stroke="#E76555" d="M140.945,646.278l28.934,186.675l182.938-117.604L140.945,646.278z"/>
		<path fill="#E6604E" stroke="#E6604E" d="M352.816,715.349L169.878,832.953l160.537-16.805L352.816,715.349z"/>
		<path fill="#E45845" stroke="#E45845" d="M352.816,715.349l-22.4,100.799l99.869-14.002L352.816,715.349z"/>
		<path fill="#E35543" stroke="#E35543" d="M352.816,715.349l77.468,86.797l18.669-145.608L352.816,715.349z"/>
		<path fill="#E04F3E" stroke="#E04F3E" d="M448.953,656.538l-18.669,145.608l137.205-83.995L448.953,656.538z"/>
		<path fill="#DF4B39" stroke="#DF4B39" d="M567.489,718.151l-137.205,83.995l159.604,6.535L567.489,718.151z"/>
		<path fill="#DB4333" stroke="#DB4333" d="M567.489,718.151l22.399,90.53l140-33.6L567.489,718.151z"/>
		<path fill="#D93E2F" stroke="#D93E2F" d="M567.489,718.151l162.399,56.931l25.198-132.541L567.489,718.151z"/>
		<path fill="#D43A29" stroke="#D43A29" d="M755.086,642.541l-25.198,132.541l195.073-72.804L755.086,642.541z"/>
		<path fill="#D23627" stroke="#D23627" d="M924.961,702.278l-195.073,72.804l180.136,7.467L924.961,702.278z"/>
		<path fill="#CE3222" stroke="#CE3222" d="M924.961,702.278l-14.938,80.271l154.938,31.738L924.961,702.278z"/>
		<path fill="#CC3122" stroke="#CC3122" d="M924.961,702.278l140,112.009l3.732-139.078L924.961,702.278z"/>
		<path fill="#CB3122" stroke="#CB3122" d="M1068.693,675.208l-3.732,139.078l53.206-149.342L1068.693,675.208z"/>
		<path fill="#CB3122" stroke="#CB3122" d="M1118.167,664.945l-53.206,149.342l73.735,29.857L1118.167,664.945z"/>
		<path fill="#C73021" stroke="#C73021" d="M1118.167,664.945l20.529,179.199l101.739-133.46L1118.167,664.945z"/>
		<path fill="#C63020" stroke="#C63020" d="M1240.436,710.684l-101.739,133.46l173.604,10.269L1240.436,710.684z"/>
		<path fill="#E87366" stroke="#E87366" d="M-58.792,794.68l228.671,38.272L35.477,806.81L-58.792,794.68z"/>
		<path fill="#D23525" stroke="#D23525" d="M169.878,832.953l1142.421,21.46l-173.604-10.269L169.878,832.953z"/>
		<path fill="#DB4333" stroke="#DB4333" d="M169.878,832.953l968.818,11.191l-548.808-35.463L169.878,832.953z"/>
		<path fill="#E55A46" stroke="#E55A46" d="M169.878,832.953l420.01-24.271l-259.473,7.467L169.878,832.953z"/>
		<path fill="#E15340" stroke="#E15340" d="M330.416,816.148l259.473-7.467l-159.604-6.535L330.416,816.148z"/>
		<path fill="#D23525" stroke="#D23525" d="M589.888,808.681l548.808,35.463l-228.673-61.596L589.888,808.681z"/>
		<path fill="#D53B2C" stroke="#D53B2C" d="M589.888,808.681l320.135-26.133l-180.136-7.467L589.888,808.681z"/>
		<path fill="#CB3122" stroke="#CB3122" d="M910.023,782.548l228.673,61.596l-73.735-29.857L910.023,782.548z"/>
	</g>
</g>
<g id="Layer_2">
	<g>
		<path fill="#F0F8FC" stroke="#F0F8FC" d="M1460.857,859.111l7.734-367.399l-29.973,143.094L1460.857,859.111z"/>
		<path fill="#FCFDFF" stroke="#FCFDFF" d="M1460.857,859.111l-22.238-224.306l-13.536,118.92L1460.857,859.111z"/>
		<path fill="#FAFBFD" stroke="#FAFBFD" d="M1460.857,859.111l-35.774-105.386l-153.726,86.049L1460.857,859.111z"/>
		<path fill="#F2F6FB" stroke="#F2F6FB" d="M1460.857,859.111l-189.5-19.337l-87.982,81.213L1460.857,859.111z"/>
		<path fill="#F0F6FB" stroke="#F0F6FB" d="M1271.357,839.774l153.726-86.049l-191.434-30.938L1271.357,839.774z"/>
		<path fill="#E8F1F9" stroke="#E8F1F9" d="M1271.357,839.774l-37.708-116.986l-85.08,54.142L1271.357,839.774z"/>
		<path fill="#E9EFF8" stroke="#E9EFF8" d="M1271.357,839.774l-122.788-62.845l34.806,144.058L1271.357,839.774z"/>
		<path fill="#E2EBF5" stroke="#E2EBF5" d="M1183.375,920.987l-34.806-144.058l-119.89,53.173L1183.375,920.987z"/>
		<path fill="#D9E7F0" stroke="#D9E7F0" d="M1183.375,920.987l-154.695-90.885L815.976,861.04L1183.375,920.987z"/>
		<path fill="#C3DAE8" stroke="#C3DAE8" d="M1183.375,920.987L815.976,861.04l-427.342,82.182L1183.375,920.987z"/>
		<path fill="#DAE8F1" stroke="#DAE8F1" d="M1028.68,830.102l119.89-53.173L936.832,761.46L1028.68,830.102z"/>
		<path fill="#D2E3ED" stroke="#D2E3ED" d="M1028.68,830.102l-91.848-68.642L815.976,861.04L1028.68,830.102z"/>
		<path fill="#C9DEEC" stroke="#C9DEEC" d="M815.976,861.04l120.856-99.579l-120.856,16.438V861.04z"/>
		<path fill="#C0D8E9" stroke="#C0D8E9" d="M815.976,861.04v-83.142l-149.858,78.311L815.976,861.04z"/>
		<path fill="#B7D2E4" stroke="#B7D2E4" d="M815.976,861.04l-149.858-4.831l-59.943,15.473L815.976,861.04z"/>
		<path fill="#ACC9E0" stroke="#ACC9E0" d="M815.976,861.04l-209.801,10.642l-217.541,71.54L815.976,861.04z"/>
		<path fill="#B8D5E6" stroke="#B8D5E6" d="M666.117,856.208l149.858-78.311L679.65,716.986L666.117,856.208z"/>
		<path fill="#ADCCE0" stroke="#ADCCE0" d="M666.117,856.208l13.533-139.223l-144.051,83.146L666.117,856.208z"/>
		<path fill="#ACC9E0" stroke="#ACC9E0" d="M666.117,856.208l-130.518-56.076l70.575,71.549L666.117,856.208z"/>
		<path fill="#A0BFD9" stroke="#A0BFD9" d="M606.174,871.681l-70.575-71.549L388.634,943.221L606.174,871.681z"/>
		<path fill="#99B7D3" stroke="#99B7D3" d="M388.634,943.221l146.965-143.089l-110.222-45.438L388.634,943.221z"/>
		<path fill="#91AFCE" stroke="#91AFCE" d="M388.634,943.221l36.744-188.526l-103.452,44.469L388.634,943.221z"/>
		<path fill="#8EABCA" stroke="#8EABCA" d="M388.634,943.221l-66.708-144.058l-44.473,87.018L388.634,943.221z"/>
		<path fill="#88A4C6" stroke="#88A4C6" d="M388.634,943.221l-111.181-57.04l-119.89,58.979L388.634,943.221z"/>
		<path fill="#859EC0" stroke="#859EC0" d="M277.453,886.181l44.473-87.018L70.549,754.695L277.453,886.181z"/>
		<path fill="#8397BC" stroke="#8397BC" d="M277.453,886.181L70.549,754.695l87.014,190.465L277.453,886.181z"/>
		<path fill="#808CB5" stroke="#808CB5" d="M157.563,945.16L70.549,754.695L-33.867,864.912L157.563,945.16z"/>
		<path fill="#7E84AE" stroke="#7E84AE" d="M-33.867,864.912L70.549,754.695l-134.39-2.902L-33.867,864.912z"/>
		<path fill="#EBF7FC" stroke="#EBF7FC" d="M1425.083,753.725l13.536-118.92l-143.092-34.811L1425.083,753.725z"/>
		<path fill="#EBF7FC" stroke="#EBF7FC" d="M1425.083,753.725l-129.556-153.73l-61.878,122.793L1425.083,753.725z"/>
		<path fill="#D7ECF9" stroke="#D7ECF9" d="M1233.649,722.788l61.878-122.793l-204.002-31.897L1233.649,722.788z"/>
		<path fill="#DDEDF7" stroke="#DDEDF7" d="M1233.649,722.788l-142.124-154.69l57.044,208.832L1233.649,722.788z"/>
		<path fill="#D7EAF2" stroke="#D7EAF2" d="M1148.569,776.929l-57.044-208.832L936.832,761.46L1148.569,776.929z"/>
		<path fill="#C5E2EF" stroke="#C5E2EF" d="M936.832,761.46l154.693-193.363l-91.848-4.837L936.832,761.46z"/>
		<path fill="#BBDDED" stroke="#BBDDED" d="M936.832,761.46l62.846-198.2l-181.766-23.203L936.832,761.46z"/>
		<path fill="#C1DCEA" stroke="#C1DCEA" d="M936.832,761.46l-118.92-221.403l-1.937,237.841L936.832,761.46z"/>
		<path fill="#B5D7E8" stroke="#B5D7E8" d="M815.976,777.898l1.937-237.841L679.65,716.986L815.976,777.898z"/>
		<path fill="#A7CFE5" stroke="#A7CFE5" d="M679.65,716.986l138.262-176.929l-149.863,72.509L679.65,716.986z"/>
		<path fill="#9CC6DF" stroke="#9CC6DF" d="M679.65,716.986l-11.602-104.42l-124.72-45.438L679.65,716.986z"/>
		<path fill="#A1C6DE" stroke="#A1C6DE" d="M679.65,716.986L543.329,567.127l-7.73,233.005L679.65,716.986z"/>
		<path fill="#92BBD8" stroke="#92BBD8" d="M535.599,800.132l7.73-233.005l-110.217,69.611L535.599,800.132z"/>
		<path fill="#96BAD5" stroke="#96BAD5" d="M535.599,800.132L433.112,636.739l-7.734,117.956L535.599,800.132z"/>
		<path fill="#87AFCE" stroke="#87AFCE" d="M425.377,754.695l7.734-117.956l-126.655-19.337L425.377,754.695z"/>
		<path fill="#89ADCC" stroke="#89ADCC" d="M425.377,754.695l-118.92-137.293l15.469,181.762L425.377,754.695z"/>
		<path fill="#7BA0C4" stroke="#7BA0C4" d="M321.926,799.164l-15.469-181.762l-131.491-19.336L321.926,799.164z"/>
		<path fill="#7F99BE" stroke="#7F99BE" d="M321.926,799.164l-146.96-201.098L70.549,754.695L321.926,799.164z"/>
		<path fill="#728BB6" stroke="#728BB6" d="M70.549,754.695l104.417-156.629L3.837,608.699L70.549,754.695z"/>
		<path fill="#7A85AF" stroke="#7A85AF" d="M70.549,754.695L3.837,608.699L-63.84,751.792L70.549,754.695z"/>
		<path fill="#5B78AD" stroke="#5B78AD" d="M-63.84,751.792L3.837,608.699L-14.53,293.512L-63.84,751.792z"/>
		<path fill="#375FA0" stroke="#375FA0" d="M-63.84,751.792l49.31-458.281l-52.213-123.752L-63.84,751.792z"/>
		<path fill="#DDF1FB" stroke="#DDF1FB" d="M1438.619,634.805l29.973-143.094l-173.064,108.283L1438.619,634.805z"/>
		<path fill="#C8E4F6" stroke="#C8E4F6" d="M1295.527,599.995l173.064-108.283l-135.358-88.946L1295.527,599.995z"/>
		<path fill="#BADCF3" stroke="#BADCF3" d="M1295.527,599.995l37.706-197.229l-233.005,59.941L1295.527,599.995z"/>
		<path fill="#BFDFF4" stroke="#BFDFF4" d="M1295.527,599.995l-195.299-137.288l-8.703,105.391L1295.527,599.995z"/>
		<path fill="#B4DAF1" stroke="#B4DAF1" d="M1091.525,568.097l8.703-105.391L999.678,563.26L1091.525,568.097z"/>
		<path fill="#A7D2EF" stroke="#A7D2EF" d="M999.678,563.26l100.551-100.554l-153.726-21.27L999.678,563.26z"/>
		<path fill="#A6D0EB" stroke="#A6D0EB" d="M999.678,563.26l-53.175-121.823l-128.591,98.62L999.678,563.26z"/>
		<path fill="#95C7E9" stroke="#95C7E9" d="M817.912,540.057l128.591-98.62l-71.547-11.602L817.912,540.057z"/>
		<path fill="#91C4E8" stroke="#91C4E8" d="M817.912,540.057l57.044-110.222l-176.932,61.876L817.912,540.057z"/>
		<path fill="#98C8E5" stroke="#98C8E5" d="M817.912,540.057l-119.888-48.346l-29.976,120.854L817.912,540.057z"/>
		<path fill="#8EC0E1" stroke="#8EC0E1" d="M668.049,612.566l29.976-120.854l-154.695,75.416L668.049,612.566z"/>
		<path fill="#7FB5DD" stroke="#7FB5DD" d="M543.329,567.127l154.695-75.416l-162.425-35.774L543.329,567.127z"/>
		<path fill="#73ACD8" stroke="#73ACD8" d="M543.329,567.127l-7.73-111.19l-79.283,16.438L543.329,567.127z"/>
		<path fill="#7DB1D5" stroke="#7DB1D5" d="M543.329,567.127l-87.013-94.752l-23.204,164.363L543.329,567.127z"/>
		<path fill="#78AACF" stroke="#78AACF" d="M433.112,636.739l23.204-164.363L306.457,617.402L433.112,636.739z"/>
		<path fill="#6699C7" stroke="#6699C7" d="M306.457,617.402l149.859-145.026L209.771,507.18L306.457,617.402z"/>
		<path fill="#6A95C0" stroke="#6A95C0" d="M306.457,617.402L209.771,507.18l-34.805,90.886L306.457,617.402z"/>
		<path fill="#5C86B9" stroke="#5C86B9" d="M174.966,598.066l34.805-90.886L69.58,488.814L174.966,598.066z"/>
		<path fill="#6184B5" stroke="#6184B5" d="M174.966,598.066L69.58,488.814L3.837,608.699L174.966,598.066z"/>
		<path fill="#5176B0" stroke="#5176B0" d="M3.837,608.699L69.58,488.814l-34.805-82.183L3.837,608.699z"/>
		<path fill="#3F68A9" stroke="#3F68A9" d="M3.837,608.699l30.938-202.067l-49.305-113.12L3.837,608.699z"/>
		<path fill="#98B4DA" stroke="#98B4DA" d="M1468.592,491.711l-15.471-464.081l-10.633,231.076L1468.592,491.711z"/>
		<path fill="#ABCFED" stroke="#ABCFED" d="M1468.592,491.711l-26.104-233.005l-109.255,144.059L1468.592,491.711z"/>
		<path fill="#9CC2E6" stroke="#9CC2E6" d="M1333.233,402.765l109.255-144.059l-161.463,99.58L1333.233,402.765z"/>
		<path fill="#A3CAEB" stroke="#A3CAEB" d="M1333.233,402.765l-52.208-44.479l-180.797,104.42L1333.233,402.765z"/>
		<path fill="#8FBBE3" stroke="#8FBBE3" d="M1100.229,462.707l180.797-104.42l-188.533-101.519L1100.229,462.707z"/>
		<path fill="#85B2DB" stroke="#85B2DB" d="M1100.229,462.707l-7.736-205.938l-52.211,16.438L1100.229,462.707z"/>
		<path fill="#8EBEE2" stroke="#8EBEE2" d="M1100.229,462.707l-59.947-189.5l-93.778,168.23L1100.229,462.707z"/>
		<path fill="#80B2DC" stroke="#80B2DC" d="M946.503,441.437l93.778-168.23l-173.063,67.682L946.503,441.437z"/>
		<path fill="#85BAE1" stroke="#85BAE1" d="M946.503,441.437l-79.284-100.549l7.737,88.947L946.503,441.437z"/>
		<path fill="#82B9E1" stroke="#82B9E1" d="M874.956,429.835l-7.737-88.947L698.024,491.711L874.956,429.835z"/>
		<path fill="#6EA8D6" stroke="#6EA8D6" d="M698.024,491.711l169.194-150.823l-182.729-77.345L698.024,491.711z"/>
		<path fill="#68A4D5" stroke="#68A4D5" d="M698.024,491.711l-13.535-228.168l-148.89,192.394L698.024,491.711z"/>
		<path fill="#548FC6" stroke="#548FC6" d="M535.599,455.937l148.89-192.394l-126.656-12.571L535.599,455.937z"/>
		<path fill="#4F8CC5" stroke="#4F8CC5" d="M535.599,455.937l22.234-204.965l-95.717,78.314L535.599,455.937z"/>
		<path fill="#5C98CD" stroke="#5C98CD" d="M535.599,455.937l-73.482-126.651l-5.801,143.089L535.599,455.937z"/>
		<path fill="#4985BE" stroke="#4985BE" d="M456.316,472.375l5.801-143.089l-243.642,16.439L456.316,472.375z"/>
		<path fill="#5088C0" stroke="#5088C0" d="M456.316,472.375l-237.841-126.65l-8.704,161.455L456.316,472.375z"/>
		<path fill="#4A7BB6" stroke="#4A7BB6" d="M209.771,507.18l8.704-161.455L69.58,488.814L209.771,507.18z"/>
		<path fill="#3D6FAE" stroke="#3D6FAE" d="M69.58,488.814l148.895-143.089l-183.7,60.906L69.58,488.814z"/>
		<path fill="#2D61A4" stroke="#2D61A4" d="M34.775,406.631l183.7-60.906l-82.182-84.12L34.775,406.631z"/>
		<path fill="#28539A" stroke="#28539A" d="M34.775,406.631l101.518-145.026L-14.53,293.512L34.775,406.631z"/>
		<path fill="#8898C6" stroke="#8898C6" d="M1442.488,258.707l10.633-231.076l-19.337,149.863L1442.488,258.707z"/>
		<path fill="#8FA6D1" stroke="#8FA6D1" d="M1442.488,258.707l-8.704-81.212L1331.3,202.626L1442.488,258.707z"/>
		<path fill="#94B2DC" stroke="#94B2DC" d="M1442.488,258.707l-111.188-56.08l-50.274,155.66L1442.488,258.707z"/>
		<path fill="#89A8D4" stroke="#89A8D4" d="M1281.025,358.287l50.274-155.66l-217.536,6.775L1281.025,358.287z"/>
		<path fill="#84A8D4" stroke="#84A8D4" d="M1281.025,358.287l-167.262-148.885l-21.271,47.367L1281.025,358.287z"/>
		<path fill="#789BCB" stroke="#789BCB" d="M1092.492,256.768l21.271-47.367l-73.482,63.805L1092.492,256.768z"/>
		<path fill="#6F8FC3" stroke="#6F8FC3" d="M1040.281,273.207l73.482-63.805l-150.827-87.987L1040.281,273.207z"/>
		<path fill="#6E96C6" stroke="#6E96C6" d="M1040.281,273.207l-77.345-151.792l-95.718,219.474L1040.281,273.207z"/>
		<path fill="#6087BD" stroke="#6087BD" d="M867.219,340.888l95.718-219.474l-174.029,20.305L867.219,340.888z"/>
		<path fill="#5D8DC2" stroke="#5D8DC2" d="M867.219,340.888l-78.312-199.169L684.489,263.543L867.219,340.888z"/>
		<path fill="#4B76B2" stroke="#4B76B2" d="M684.489,263.543l104.418-121.824l-121.823-24.172L684.489,263.543z"/>
		<path fill="#4372B1" stroke="#4372B1" d="M684.489,263.543l-17.405-145.996l-101.516,68.651L684.489,263.543z"/>
		<path fill="#487BB7" stroke="#487BB7" d="M684.489,263.543l-118.921-77.345l-7.735,64.774L684.489,263.543z"/>
		<path fill="#376AAB" stroke="#376AAB" d="M557.833,250.972l7.735-64.774l-180.797,9.664L557.833,250.972z"/>
		<path fill="#3C72B2" stroke="#3C72B2" d="M557.833,250.972l-173.063-55.111l77.346,133.425L557.833,250.972z"/>
		<path fill="#376DAE" stroke="#376DAE" d="M462.117,329.286l-77.346-133.425L218.475,345.725L462.117,329.286z"/>
		<path fill="#24539A" stroke="#24539A" d="M218.475,345.725l166.296-149.864l-154.695-88.947L218.475,345.725z"/>
		<path fill="#235097" stroke="#235097" d="M218.475,345.725l11.602-238.811l-93.783,154.691L218.475,345.725z"/>
		<path fill="#153E86" stroke="#153E86" d="M136.293,261.605l93.783-154.691l-113.12,20.306L136.293,261.605z"/>
		<path fill="#16428B" stroke="#16428B" d="M136.293,261.605L116.957,127.22L-14.53,293.512L136.293,261.605z"/>
		<path fill="#1D387D" stroke="#1D387D" d="M-14.53,293.512L116.957,127.22l-183.7,42.54L-14.53,293.512z"/>
		<path fill="#8392C3" stroke="#8392C3" d="M1433.784,177.494l19.337-149.863L1331.3,202.626L1433.784,177.494z"/>
		<path fill="#7983B9" stroke="#7983B9" d="M1331.3,202.626l121.821-174.996L1281.99-5.246L1331.3,202.626z"/>
		<path fill="#758ABE" stroke="#758ABE" d="M1331.3,202.626L1281.99-5.246l-168.227,214.647L1331.3,202.626z"/>
		<path fill="#6778B1" stroke="#6778B1" d="M1113.764,209.401L1281.99-5.246l-185.631,36.744L1113.764,209.401z"/>
		<path fill="#6279B2" stroke="#6279B2" d="M1113.764,209.401l-17.404-177.903l-95.715,24.173L1113.764,209.401z"/>
		<path fill="#637FB6" stroke="#637FB6" d="M1113.764,209.401l-113.119-153.73l-37.708,65.744L1113.764,209.401z"/>
		<path fill="#546DA8" stroke="#546DA8" d="M962.937,121.415l37.708-65.744l-142.124-13.54L962.937,121.415z"/>
		<path fill="#5070AC" stroke="#5070AC" d="M962.937,121.415L858.521,42.131l-69.613,99.588L962.937,121.415z"/>
		<path fill="#4162A5" stroke="#4162A5" d="M788.907,141.719l69.613-99.588l-182.732-14.5L788.907,141.719z"/>
		<path fill="#3F63A6" stroke="#3F63A6" d="M788.907,141.719L675.788,27.631l-8.704,89.916L788.907,141.719z"/>
		<path fill="#305497" stroke="#305497" d="M667.084,117.547l8.704-89.916l-146.959-29L667.084,117.547z"/>
		<path fill="#2E5A9F" stroke="#2E5A9F" d="M667.084,117.547L528.829-1.369l36.739,187.567L667.084,117.547z"/>
		<path fill="#224892" stroke="#224892" d="M565.568,186.198L528.829-1.369L382.838,26.662L565.568,186.198z"/>
		<path fill="#28539B" stroke="#28539B" d="M565.568,186.198L382.838,26.662l1.933,169.2L565.568,186.198z"/>
		<path fill="#18418B" stroke="#18418B" d="M384.771,195.861l-1.933-169.2l-152.762,80.252L384.771,195.861z"/>
		<path fill="#1B397A" stroke="#1B397A" d="M230.076,106.914l152.762-80.252l-69.616-29L230.076,106.914z"/>
		<path fill="#1F3268" stroke="#1F3268" d="M230.076,106.914L313.222-2.338L70.549-31.347L230.076,106.914z"/>
		<path fill="#203167" stroke="#203167" d="M230.076,106.914L70.549-31.347l46.407,158.567L230.076,106.914z"/>
		<path fill="#1F2B59" stroke="#1F2B59" d="M116.957,127.22L70.549-31.347L2.868-26.511L116.957,127.22z"/>
		<path fill="#202E61" stroke="#202E61" d="M116.957,127.22L2.868-26.511l-69.611,196.271L116.957,127.22z"/>
		<path fill="#31528E" stroke="#31528E" d="M1281.99-5.246L70.549-31.347l458.28,29.978L1281.99-5.246z"/>
		<path fill="#4E689E" stroke="#4E689E" d="M1281.99-5.246L528.829-1.369l329.691,43.5L1281.99-5.246z"/>
		<path fill="#6071A5" stroke="#6071A5" d="M1281.99-5.246l-423.47,47.376l237.839-10.633L1281.99-5.246z"/>
		<path fill="#576DA5" stroke="#576DA5" d="M1096.359,31.498L858.521,42.131l142.124,13.54L1096.359,31.498z"/>
		<path fill="#395A98" stroke="#395A98" d="M858.521,42.131l-329.691-43.5l146.959,29L858.521,42.131z"/>
		<path fill="#1C3670" stroke="#1C3670" d="M528.829-1.369L70.549-31.347L313.222-2.338L528.829-1.369z"/>
		<path fill="#143F81" stroke="#143F81" d="M528.829-1.369L313.222-2.338l69.616,29L528.829-1.369z"/>
	</g>
</g>
<g id="Layer_3" display="none">
	<g display="inline">
		<path fill="#DCEEEB" stroke="#DCEEEB" d="M1325.963,693.746l7.697-508.679l-23.084,264.171L1325.963,693.746z"/>
		<path fill="#F6FAFB" stroke="#F6FAFB" d="M1325.963,693.746l-15.387-244.508l-39.328,160.725L1325.963,693.746z"/>
		<path fill="#FCFDFF" stroke="#FCFDFF" d="M1325.963,693.746l-54.715-83.783l-67.541,102.595L1325.963,693.746z"/>
		<path fill="#EDF6F8" stroke="#EDF6F8" d="M1325.963,693.746l-122.256,18.812l-424.049,70.104L1325.963,693.746z"/>
		<path fill="#F2F9FB" stroke="#F2F9FB" d="M1203.707,712.557l67.541-102.595l-138.501-25.647L1203.707,712.557z"/>
		<path fill="#EDF7F8" stroke="#EDF7F8" d="M1203.707,712.557l-70.96-128.242l-66.685,116.273L1203.707,712.557z"/>
		<path fill="#E8F5F5" stroke="#E8F5F5" d="M1203.707,712.557l-137.645-11.969l-177.829,44.456L1203.707,712.557z"/>
		<path fill="#DEF0F1" stroke="#DEF0F1" d="M1203.707,712.557l-315.474,32.487l-108.575,37.616L1203.707,712.557z"/>
		<path fill="#E5F3F4" stroke="#E5F3F4" d="M1066.063,700.588l66.685-116.273l-115.417,14.538L1066.063,700.588z"/>
		<path fill="#DFF0F1" stroke="#DFF0F1" d="M1066.063,700.588l-48.732-101.735l-82.928,12.824L1066.063,700.588z"/>
		<path fill="#DEF0F1" stroke="#DEF0F1" d="M1066.063,700.588l-131.66-88.911l-46.169,133.367L1066.063,700.588z"/>
		<path fill="#D1EAE6" stroke="#D1EAE6" d="M888.233,745.044l46.169-133.367L728.36,650.148L888.233,745.044z"/>
		<path fill="#CCE6E0" stroke="#CCE6E0" d="M888.233,745.044L728.36,650.148l51.298,132.513L888.233,745.044z"/>
		<path fill="#C5E1D7" stroke="#C5E1D7" d="M779.658,782.661L728.36,650.148l-40.184,65.829L779.658,782.661z"/>
		<path fill="#B7D7C8" stroke="#B7D7C8" d="M779.658,782.661l-91.481-66.684l-305.194,71.813L779.658,782.661z"/>
		<path fill="#BEDDD2" stroke="#BEDDD2" d="M688.177,715.977l40.184-65.829l-88.059-4.282L688.177,715.977z"/>
		<path fill="#B7D7C8" stroke="#B7D7C8" d="M688.177,715.977l-47.875-70.111l-111.982,47.88L688.177,715.977z"/>
		<path fill="#ADCEBB" stroke="#ADCEBB" d="M688.177,715.977l-159.857-22.231l-145.337,94.045L688.177,715.977z"/>
		<path fill="#AFD0BC" stroke="#AFD0BC" d="M528.319,693.746l111.982-47.88l-170.117,14.537L528.319,693.746z"/>
		<path fill="#A4C7AD" stroke="#A4C7AD" d="M528.319,693.746l-58.135-33.343l-87.202,127.388L528.319,693.746z"/>
		<path fill="#A1C3A6" stroke="#A1C3A6" d="M382.982,787.791l87.202-127.388l-77.798-75.232L382.982,787.791z"/>
		<path fill="#9ABD9E" stroke="#9ABD9E" d="M382.982,787.791l9.404-202.62l-90.622,201.766L382.982,787.791z"/>
		<path fill="#93B795" stroke="#93B795" d="M301.765,786.936l90.622-201.766l-166.713,37.616L301.765,786.936z"/>
		<path fill="#8DAE87" stroke="#8DAE87" d="M301.765,786.936l-76.092-164.149l-87.207,97.465L301.765,786.936z"/>
		<path fill="#8AA783" stroke="#8AA783" d="M301.765,786.936l-163.298-66.685L14.503,742.48L301.765,786.936z"/>
		<path fill="#88A984" stroke="#88A984" d="M138.466,720.251l87.207-97.465l-79.512-58.139L138.466,720.251z"/>
		<path fill="#84A283" stroke="#84A283" d="M138.466,720.251l7.694-155.604L17.922,586.875L138.466,720.251z"/>
		<path fill="#879E82" stroke="#879E82" d="M138.466,720.251L17.922,586.875L14.503,742.48L138.466,720.251z"/>
		<path fill="#809A82" stroke="#809A82" d="M14.503,742.48l3.419-155.604l-3.419-53.855V742.48z"/>
		<path fill="#659173" stroke="#659173" d="M14.503,742.48V533.02L-46.201,55.119L14.503,742.48z"/>
		<path fill="#E8F5F8" stroke="#E8F5F8" d="M1271.248,609.962l39.328-160.725l-123.112,36.757L1271.248,609.962z"/>
		<path fill="#E8F5F8" stroke="#E8F5F8" d="M1271.248,609.962l-83.784-123.968l-54.717,98.32L1271.248,609.962z"/>
		<path fill="#DCEFF2" stroke="#DCEFF2" d="M1132.747,584.315l54.717-98.32l-186.379,8.55L1132.747,584.315z"/>
		<path fill="#DBEFF1" stroke="#DBEFF1" d="M1132.747,584.315l-131.662-89.771l16.245,104.309L1132.747,584.315z"/>
		<path fill="#D4ECEE" stroke="#D4ECEE" d="M1017.33,598.853l-16.245-104.309l-81.218,25.647L1017.33,598.853z"/>
		<path fill="#D5ECEE" stroke="#D5ECEE" d="M1017.33,598.853l-97.463-78.661l14.535,91.485L1017.33,598.853z"/>
		<path fill="#CCE8E5" stroke="#CCE8E5" d="M934.402,611.677l-14.535-91.485L728.36,650.148L934.402,611.677z"/>
		<path fill="#C0E2DE" stroke="#C0E2DE" d="M728.36,650.148l191.507-129.956l-167.568-34.197L728.36,650.148z"/>
		<path fill="#B9DFD5" stroke="#B9DFD5" d="M728.36,650.148l23.938-164.153L640.302,645.866L728.36,650.148z"/>
		<path fill="#ADD9CF" stroke="#ADD9CF" d="M640.302,645.866l111.997-159.871l-123.968-53.859L640.302,645.866z"/>
		<path fill="#A2D2BF" stroke="#A2D2BF" d="M640.302,645.866l-11.971-213.73l-126.514,8.549L640.302,645.866z"/>
		<path fill="#A4CEBB" stroke="#A4CEBB" d="M640.302,645.866L501.816,440.684l-31.632,219.719L640.302,645.866z"/>
		<path fill="#9AC6AC" stroke="#9AC6AC" d="M470.185,660.403l31.632-219.719L392.386,585.17L470.185,660.403z"/>
		<path fill="#8DC2A5" stroke="#8DC2A5" d="M392.386,585.17l109.43-144.486l-76.088,17.099L392.386,585.17z"/>
		<path fill="#89BA9B" stroke="#89BA9B" d="M392.386,585.17l33.342-127.388l-208.605,59.845L392.386,585.17z"/>
		<path fill="#86B491" stroke="#86B491" d="M392.386,585.17l-175.263-67.543l8.55,105.159L392.386,585.17z"/>
		<path fill="#80AB84" stroke="#80AB84" d="M225.673,622.787l-8.55-105.159l-70.962,47.021L225.673,622.787z"/>
		<path fill="#7BA682" stroke="#7BA682" d="M146.161,564.648l70.962-47.021l-99.175-57.28L146.161,564.648z"/>
		<path fill="#79A182" stroke="#79A182" d="M146.161,564.648l-28.212-104.301L14.503,533.02L146.161,564.648z"/>
		<path fill="#7C9E82" stroke="#7C9E82" d="M146.161,564.648L14.503,533.02l3.419,53.855L146.161,564.648z"/>
		<path fill="#BFE0CE" stroke="#BFE0CE" d="M1310.576,449.238l23.084-264.171l-47.023,169.267L1310.576,449.238z"/>
		<path fill="#CAE6DF" stroke="#CAE6DF" d="M1310.576,449.238l-23.939-94.905l-110.287,11.118L1310.576,449.238z"/>
		<path fill="#D1EAE7" stroke="#D1EAE7" d="M1310.576,449.238l-134.227-83.787l11.114,120.543L1310.576,449.238z"/>
		<path fill="#C4E4DD" stroke="#C4E4DD" d="M1187.464,485.995l-11.114-120.543l-100.029,2.564L1187.464,485.995z"/>
		<path fill="#CAE7E4" stroke="#CAE7E4" d="M1187.464,485.995L1076.32,368.016l-75.235,126.529L1187.464,485.995z"/>
		<path fill="#B5DDD6" stroke="#B5DDD6" d="M1001.085,494.544l75.235-126.529L917.302,325.27L1001.085,494.544z"/>
		<path fill="#BDE1DD" stroke="#BDE1DD" d="M1001.085,494.544L917.302,325.27l2.565,194.922L1001.085,494.544z"/>
		<path fill="#B1DBD3" stroke="#B1DBD3" d="M919.867,520.192l-2.565-194.922L752.299,485.995L919.867,520.192z"/>
		<path fill="#9FD2C3" stroke="#9FD2C3" d="M752.299,485.995L917.302,325.27L721.52,360.317L752.299,485.995z"/>
		<path fill="#9CD1BF" stroke="#9CD1BF" d="M752.299,485.995L721.52,360.317l-93.189,71.818L752.299,485.995z"/>
		<path fill="#92CCB5" stroke="#92CCB5" d="M628.331,432.135l93.189-71.818l-88.915,29.926L628.331,432.135z"/>
		<path fill="#8AC8AB" stroke="#8AC8AB" d="M628.331,432.135l4.274-41.892l-116.254-35.052L628.331,432.135z"/>
		<path fill="#86C5A7" stroke="#86C5A7" d="M628.331,432.135l-111.98-76.943l-14.534,85.492L628.331,432.135z"/>
		<path fill="#81BF9D" stroke="#81BF9D" d="M501.816,440.684l14.534-85.492l-90.622,102.591L501.816,440.684z"/>
		<path fill="#75B68E" stroke="#75B68E" d="M425.729,457.783l90.622-102.591l-149.611-38.463L425.729,457.783z"/>
		<path fill="#6CAC7F" stroke="#6CAC7F" d="M425.729,457.783l-58.989-141.054l-148.761,55.562L425.729,457.783z"/>
		<path fill="#74AD83" stroke="#74AD83" d="M425.729,457.783l-207.75-85.492l-0.855,145.337L425.729,457.783z"/>
		<path fill="#6DA277" stroke="#6DA277" d="M217.123,517.627l0.855-145.337l-100.03,88.057L217.123,517.627z"/>
		<path fill="#619B6B" stroke="#619B6B" d="M117.948,460.347l100.03-88.057l-82.077-30.782L117.948,460.347z"/>
		<path fill="#61956C" stroke="#61956C" d="M117.948,460.347l17.953-118.838L7.663,400.503L117.948,460.347z"/>
		<path fill="#6D9677" stroke="#6D9677" d="M117.948,460.347L7.663,400.503l6.84,132.517L117.948,460.347z"/>
		<path fill="#4E8056" stroke="#4E8056" d="M14.503,533.02l-6.84-132.517L-46.201,55.119L14.503,533.02z"/>
		<path fill="#A8D1B5" stroke="#A8D1B5" d="M1286.637,354.333l47.023-169.267l-176.974,32.483L1286.637,354.333z"/>
		<path fill="#B2DAC6" stroke="#B2DAC6" d="M1286.637,354.333l-129.95-136.783l19.663,147.901L1286.637,354.333z"/>
		<path fill="#ACD8C4" stroke="#ACD8C4" d="M1176.35,365.451l-19.663-147.901l-80.366,150.466L1176.35,365.451z"/>
		<path fill="#9FD1B8" stroke="#9FD1B8" d="M1076.32,368.016l80.366-150.466l-130.808,41.895L1076.32,368.016z"/>
		<path fill="#A2D3BF" stroke="#A2D3BF" d="M1076.32,368.016l-50.441-108.571L917.302,325.27L1076.32,368.016z"/>
		<path fill="#94CBB1" stroke="#94CBB1" d="M917.302,325.27l108.577-65.825l-148.758,2.565L917.302,325.27z"/>
		<path fill="#93CCB1" stroke="#93CCB1" d="M917.302,325.27l-40.181-63.26L721.52,360.317L917.302,325.27z"/>
		<path fill="#83C09F" stroke="#83C09F" d="M721.52,360.317l155.602-98.308l-82.075-49.586L721.52,360.317z"/>
		<path fill="#79B990" stroke="#79B990" d="M721.52,360.317l73.526-147.894l-180.392-2.569L721.52,360.317z"/>
		<path fill="#80C19E" stroke="#80C19E" d="M721.52,360.317L614.654,209.855l17.951,180.389L721.52,360.317z"/>
		<path fill="#79B992" stroke="#79B992" d="M632.605,390.244l-17.951-180.389l-98.303,145.337L632.605,390.244z"/>
		<path fill="#64A574" stroke="#64A574" d="M516.351,355.192l98.303-145.337l-89.754-30.773L516.351,355.192z"/>
		<path fill="#60A16E" stroke="#60A16E" d="M516.351,355.192l8.549-176.11l-111.995,75.233L516.351,355.192z"/>
		<path fill="#66A675" stroke="#66A675" d="M516.351,355.192L412.905,254.315l-46.166,62.414L516.351,355.192z"/>
		<path fill="#55945A" stroke="#55945A" d="M366.739,316.729l46.166-62.414l-187.232-0.854L366.739,316.729z"/>
		<path fill="#59965D" stroke="#59965D" d="M366.739,316.729L225.673,253.46l-7.694,118.83L366.739,316.729z"/>
		<path fill="#569157" stroke="#569157" d="M217.979,372.291l7.694-118.83l-89.771,88.048L217.979,372.291z"/>
		<path fill="#4C8446" stroke="#4C8446" d="M135.901,341.509l89.771-88.048l-70.108-21.373L135.901,341.509z"/>
		<path fill="#43793D" stroke="#43793D" d="M135.901,341.509l19.664-109.421l-165-48.735L135.901,341.509z"/>
		<path fill="#4D804F" stroke="#4D804F" d="M135.901,341.509L-9.435,183.353l17.098,217.15L135.901,341.509z"/>
		<path fill="#37672F" stroke="#37672F" d="M7.663,400.503l-17.098-217.15L-46.201,55.119L7.663,400.503z"/>
		<path fill="#8FB789" stroke="#8FB789" d="M1333.66,185.066l-3.422-75.237l-123.111-21.374L1333.66,185.066z"/>
		<path fill="#8EBC93" stroke="#8EBC93" d="M1333.66,185.066l-126.533-96.61l-50.44,129.094L1333.66,185.066z"/>
		<path fill="#83B284" stroke="#83B284" d="M1156.687,217.55l50.44-129.094l-144.486,0.855L1156.687,217.55z"/>
		<path fill="#8ABB96" stroke="#8ABB96" d="M1156.687,217.55l-94.046-128.238l-36.762,170.133L1156.687,217.55z"/>
		<path fill="#79AD80" stroke="#79AD80" d="M1025.879,259.445l36.762-170.133L890.798,63.664L1025.879,259.445z"/>
		<path fill="#7EB690" stroke="#7EB690" d="M1025.879,259.445L890.798,63.664L877.121,262.01L1025.879,259.445z"/>
		<path fill="#74AE82" stroke="#74AE82" d="M877.121,262.01l13.677-198.346l-95.752,148.76L877.121,262.01z"/>
		<path fill="#639C69" stroke="#639C69" d="M795.046,212.424l95.752-148.76L742.895,52.55L795.046,212.424z"/>
		<path fill="#5F9961" stroke="#5F9961" d="M795.046,212.424L742.895,52.55l-48.733,40.181L795.046,212.424z"/>
		<path fill="#62A270" stroke="#62A270" d="M795.046,212.424L694.161,92.731l-79.507,117.124L795.046,212.424z"/>
		<path fill="#559153" stroke="#559153" d="M614.654,209.855l79.507-117.124L524.044,77.338L614.654,209.855z"/>
		<path fill="#539154" stroke="#539154" d="M614.654,209.855L524.044,77.338l0.855,101.744L614.654,209.855z"/>
		<path fill="#477F3C" stroke="#477F3C" d="M524.899,179.082l-0.855-101.744L379.563,65.369L524.899,179.082z"/>
		<path fill="#4C8746" stroke="#4C8746" d="M524.899,179.082L379.563,65.369l33.342,188.946L524.899,179.082z"/>
		<path fill="#417E35" stroke="#417E35" d="M412.905,254.315L379.563,65.369l-89.767,60.704L412.905,254.315z"/>
		<path fill="#488441" stroke="#488441" d="M412.905,254.315L289.796,126.073L225.673,253.46L412.905,254.315z"/>
		<path fill="#3B7328" stroke="#3B7328" d="M225.673,253.46l64.123-127.388l-137.65-13.679L225.673,253.46z"/>
		<path fill="#3D7530" stroke="#3D7530" d="M225.673,253.46l-73.527-141.066l3.419,119.693L225.673,253.46z"/>
		<path fill="#376A26" stroke="#376A26" d="M155.565,232.087l-3.419-119.693L-9.435,183.353L155.565,232.087z"/>
		<path fill="#2B571A" stroke="#2B571A" d="M-9.435,183.353l161.581-70.958L-46.201,55.119L-9.435,183.353z"/>
		<path fill="#88A783" stroke="#88A783" d="M1330.238,109.83l-58.135-129.098l-64.977,107.724L1330.238,109.83z"/>
		<path fill="#809E80" stroke="#809E80" d="M1207.127,88.456l64.977-107.724l-134.228,30.777L1207.127,88.456z"/>
		<path fill="#7EA27E" stroke="#7EA27E" d="M1207.127,88.456l-69.251-76.947l-75.235,77.802L1207.127,88.456z"/>
		<path fill="#749579" stroke="#749579" d="M1062.641,89.312l75.235-77.802L994.247-67.999L1062.641,89.312z"/>
		<path fill="#6C9075" stroke="#6C9075" d="M1062.641,89.312l-68.394-157.31l-98.32,75.237L1062.641,89.312z"/>
		<path fill="#6D9875" stroke="#6D9875" d="M1062.641,89.312L895.927,7.239l-5.129,56.425L1062.641,89.312z"/>
		<path fill="#61906A" stroke="#61906A" d="M890.798,63.664l5.129-56.425L742.895,52.55L890.798,63.664z"/>
		<path fill="#5B8466" stroke="#5B8466" d="M742.895,52.55L895.927,7.239l-96.605-77.802L742.895,52.55z"/>
		<path fill="#53805C" stroke="#53805C" d="M742.895,52.55l56.427-123.113L647.993,19.204L742.895,52.55z"/>
		<path fill="#55895A" stroke="#55895A" d="M742.895,52.55l-94.901-33.346l46.168,73.527L742.895,52.55z"/>
		<path fill="#4F8451" stroke="#4F8451" d="M694.161,92.731l-46.168-73.527L524.044,77.338L694.161,92.731z"/>
		<path fill="#457845" stroke="#457845" d="M524.044,77.338l123.949-58.135l-159-11.965L524.044,77.338z"/>
		<path fill="#3F7238" stroke="#3F7238" d="M524.044,77.338l-35.052-70.1l-109.43,58.13L524.044,77.338z"/>
		<path fill="#36622D" stroke="#36622D" d="M379.563,65.369l109.43-58.13L359.044-79.963L379.563,65.369z"/>
		<path fill="#2F5C25" stroke="#2F5C25" d="M379.563,65.369L359.044-79.963L288.937,6.384L379.563,65.369z"/>
		<path fill="#366825" stroke="#366825" d="M379.563,65.369L288.937,6.384l0.859,119.689L379.563,65.369z"/>
		<path fill="#32641E" stroke="#32641E" d="M289.796,126.073L288.937,6.384l-136.792,106.01L289.796,126.073z"/>
		<path fill="#2A5519" stroke="#2A5519" d="M152.146,112.394L288.937,6.384l-110.29-30.781L152.146,112.394z"/>
		<path fill="#244A15" stroke="#244A15" d="M152.146,112.394l26.502-136.792l-153.03-14.53L152.146,112.394z"/>
		<path fill="#234915" stroke="#234915" d="M152.146,112.394L25.617-38.927l-71.818,94.046L152.146,112.394z"/>
		<path fill="#77917C" stroke="#77917C" d="M1272.104-19.268l-277.856-48.73l143.629,79.508L1272.104-19.268z"/>
		<path fill="#4C725A" stroke="#4C725A" d="M994.247-67.999L359.044-79.963l440.277,9.4L994.247-67.999z"/>
		<path fill="#61826D" stroke="#61826D" d="M994.247-67.999l-194.926-2.564l96.605,77.802L994.247-67.999z"/>
		<path fill="#3D6741" stroke="#3D6741" d="M799.321-70.563l-440.277-9.4L488.993,7.239L799.321-70.563z"/>
		<path fill="#4A7852" stroke="#4A7852" d="M799.321-70.563L488.993,7.239l159,11.965L799.321-70.563z"/>
		<path fill="#214413" stroke="#214413" d="M359.044-79.963L25.617-38.927l153.03,14.53L359.044-79.963z"/>
		<path fill="#274E1A" stroke="#274E1A" d="M359.044-79.963L178.647-24.397l110.29,30.781L359.044-79.963z"/>
	</g>
</g>
</svg>
