<?xml version="1.0" encoding="utf-8"?>
<!-- Generator: Adobe Illustrator 16.0.0, SVG Export Plug-In . SVG Version: 6.00 Build 0)  -->
<!DOCTYPE svg PUBLIC "-//W3C//DTD SVG 1.1//EN" "http://www.w3.org/Graphics/SVG/1.1/DTD/svg11.dtd">
<svg version="1.1" id="Layer_1" xmlns="http://www.w3.org/2000/svg" xmlns:xlink="http://www.w3.org/1999/xlink" x="0px" y="0px"
	 width="100px" height="100px" viewBox="0 0 100 100" enable-background="new 0 0 100 100" xml:space="preserve">
<path fill="#FFFFFF" d="M13.816,67.816c-7.569,7.441-1.177,15.076-11.235,26.395c-4.54,5.111,18.69,3.551,30.199-7.755
	c4.882-4.797,3.505-11.79-1.731-16.937C25.813,64.371,18.697,63.019,13.816,67.816z M97.701,3.299
	C93.815-0.52,50.807,33.945,38.002,46.533c-6.354,6.246-8.476,9.596-10.424,12.1c-0.847,1.088,0.272,1.424,0.776,1.682
	c2.517,1.28,4.277,2.475,6.553,4.712c2.277,2.237,3.492,3.968,4.795,6.44c0.261,0.496,0.604,1.598,1.708,0.766
	c2.55-1.914,5.955-4,12.308-10.247C66.524,49.396,101.583,7.115,97.701,3.299z"/>
</svg>
