<?xml version="1.0" encoding="utf-8"?>
<!-- Generator: Adobe Illustrator 16.0.0, SVG Export Plug-In . SVG Version: 6.00 Build 0)  -->
<!DOCTYPE svg PUBLIC "-//W3C//DTD SVG 1.1//EN" "http://www.w3.org/Graphics/SVG/1.1/DTD/svg11.dtd">
<svg version="1.1" id="Layer_1" xmlns="http://www.w3.org/2000/svg" xmlns:xlink="http://www.w3.org/1999/xlink" x="0px" y="0px"
	 width="100px" height="100px" viewBox="0 0 100 100" enable-background="new 0 0 100 100" xml:space="preserve">
<g>
	<path fill="#FFFFFF" d="M50,40.004c-8.285,0-15,6.718-15,15c0,8.285,6.715,15,15,15c8.283,0,15-6.715,15-15
		C65,46.722,58.283,40.004,50,40.004z M90,25.004H78c-1.65,0-3.428-1.28-3.949-2.846l-3.102-9.309
		c-0.523-1.565-2.299-2.846-3.949-2.846H33c-1.65,0-3.428,1.28-3.949,2.846l-3.102,9.309c-0.523,1.565-2.299,2.846-3.949,2.846H10
		c-5.5,0-10,4.5-10,10v44.997c0,5.498,4.5,9.995,10,9.995h80c5.5,0,10-4.497,10-9.995V35.004C100,29.504,95.5,25.004,90,25.004z
		 M50,80.001c-13.807,0-25-11.19-25-24.997c0-13.806,11.193-25,25-25c13.805,0,25,11.194,25,25C75,68.811,63.805,80.001,50,80.001z
		 M86.5,41.997c-1.932,0-3.5-1.566-3.5-3.5c0-1.931,1.568-3.5,3.5-3.5c1.934,0,3.5,1.569,3.5,3.5
		C90,40.43,88.434,41.997,86.5,41.997z"/>
</g>
</svg>
