<?xml version="1.0" encoding="utf-8"?>
<!-- Generator: Adobe Illustrator 16.0.0, SVG Export Plug-In . SVG Version: 6.00 Build 0)  -->
<!DOCTYPE svg PUBLIC "-//W3C//DTD SVG 1.1//EN" "http://www.w3.org/Graphics/SVG/1.1/DTD/svg11.dtd">
<svg version="1.1" id="Layer_1" xmlns="http://www.w3.org/2000/svg" xmlns:xlink="http://www.w3.org/1999/xlink" x="0px" y="0px"
	 width="100px" height="100px" viewBox="0 0 100 100" enable-background="new 0 0 100 100" xml:space="preserve">
<g>
	<path fill="#F9F9F9" d="M50,22.001c-32.803,0-50,24.167-50,28c0,3.832,17.197,27.998,50,27.998c32.801,0,50-24.166,50-27.998
		C100,46.168,82.801,22.001,50,22.001z M50,71.54c-12.273,0-22.223-9.643-22.223-21.539S37.727,28.463,50,28.463
		s22.223,9.642,22.223,21.538S62.273,71.54,50,71.54z M50,50.001c-2.035-2.235,3.316-10.77,0-10.77
		c-6.137,0-11.111,4.823-11.111,10.77S43.863,60.771,50,60.771c6.135,0,11.111-4.822,11.111-10.77
		C61.111,47.269,51.73,51.899,50,50.001z"/>
</g>
</svg>
