<?xml version="1.0" encoding="utf-8"?>
<!-- Generator: Adobe Illustrator 16.0.0, SVG Export Plug-In . SVG Version: 6.00 Build 0)  -->
<!DOCTYPE svg PUBLIC "-//W3C//DTD SVG 1.1//EN" "http://www.w3.org/Graphics/SVG/1.1/DTD/svg11.dtd">
<svg version="1.1" id="Layer_1" xmlns="http://www.w3.org/2000/svg" xmlns:xlink="http://www.w3.org/1999/xlink" x="0px" y="0px"
	 width="100px" height="100px" viewBox="0 0 100 100" enable-background="new 0 0 100 100" xml:space="preserve">
<path fill="#FFFFFF" d="M27.582,71.121C16.27,58.96,16.471,39.899,28.219,28.066c4.809-4.843,10.82-7.733,17.072-8.683l-0.35-10.38
	c-8.771,1.066-17.26,4.979-23.984,11.75C5.213,36.612,5.025,62.205,20.342,78.408l-8.703,8.762l27.549,1.503l-0.076-29.164
	L27.582,71.121z M60.811,11.328l0.076,29.171l11.531-11.613c11.311,12.162,11.111,31.224-0.637,43.056
	c-4.809,4.843-10.82,7.729-17.074,8.679l0.35,10.376c8.773-1.064,17.262-4.977,23.986-11.744
	c15.744-15.855,15.932-41.451,0.613-57.656l8.703-8.764L60.811,11.328z"/>
</svg>
